<svg width="696" height="863" viewBox="0 0 696 863" fill="none" xmlns="http://www.w3.org/2000/svg">
<path d="M590 799H260C254.477 799 250 803.477 250 809C250 814.523 254.477 819 260 819H590C595.523 819 600 814.523 600 809C600 803.477 595.523 799 590 799Z" fill="#E4EBF7"/>
<path fillRule="evenodd" clipRule="evenodd" d="M606.285 610.353C633.756 597.36 650.129 631.438 636.313 650.412C619.454 673.566 610.817 700.208 606.008 708.235C601.951 715.007 590.838 731.515 577.455 723.906C565.14 716.903 571.852 689.419 571.852 689.419C571.852 689.419 572.396 626.383 606.285 610.353Z" fill="#5B8C00"/>
<path fillRule="evenodd" clipRule="evenodd" d="M523.658 718.615C514.318 706.015 510.908 687.933 521.333 683.296C531.327 678.851 547.882 689.796 555.55 710.862C563.219 731.927 567.643 747.072 560.142 749.706C547.835 754.026 535.993 735.256 523.658 718.615Z" fill="#5B8C00"/>
<path fillRule="evenodd" clipRule="evenodd" d="M621.841 719.571C611.278 731.95 596.035 756.851 586.486 748.13C580.698 742.845 588.435 717.814 609.614 704.195C627.629 692.611 632.404 707.193 621.841 719.571Z" fill="#7CB305"/>
<path fillRule="evenodd" clipRule="evenodd" d="M520.762 633.669C524.779 630.967 529.833 630.35 534.443 631.826C540.878 633.888 550.643 640.024 560.308 657.639C572.926 680.636 579.495 705.848 578.196 721.818C577.347 732.262 564.481 736.764 557.283 729.15C553.977 725.652 550.48 720.261 547.057 712.083C533.285 679.172 520.409 658.548 518.873 656.477C514.776 650.951 511.847 639.668 520.762 633.669Z" fill="#7CB305"/>
<path fillRule="evenodd" clipRule="evenodd" d="M529.999 646.797C530.135 648.422 528.928 649.849 527.304 649.986C525.679 650.122 524.251 648.915 524.114 647.29C523.978 645.665 525.185 644.238 526.81 644.101C528.435 643.965 529.863 645.172 529.999 646.797Z" fill="white"/>
<path fillRule="evenodd" clipRule="evenodd" d="M555.078 659.403C555.214 661.027 554.007 662.455 552.382 662.592C550.757 662.728 549.33 661.521 549.193 659.896C549.057 658.271 550.264 656.844 551.889 656.707C553.514 656.571 554.942 657.778 555.078 659.403Z" fill="white"/>
<path fillRule="evenodd" clipRule="evenodd" d="M550.875 692.967C551.031 694.828 549.649 696.463 547.788 696.619C545.927 696.775 544.292 695.393 544.136 693.532C543.98 691.672 545.362 690.036 547.223 689.88C549.083 689.724 550.718 691.106 550.875 692.967Z" fill="white"/>
<path fillRule="evenodd" clipRule="evenodd" d="M627.904 642.806C627.904 645.448 625.763 647.589 623.122 647.589C620.481 647.589 618.341 645.448 618.341 642.806C618.341 640.166 620.481 638.025 623.122 638.025C625.763 638.025 627.904 640.166 627.904 642.806Z" fill="white"/>
<path fillRule="evenodd" clipRule="evenodd" d="M589.409 657.409C589.409 660.05 587.268 662.191 584.627 662.191C581.986 662.191 579.846 660.05 579.846 657.409C579.846 654.768 581.986 652.627 584.627 652.627C587.268 652.627 589.409 654.768 589.409 657.409Z" fill="white"/>
<path fillRule="evenodd" clipRule="evenodd" d="M601.877 689.868C601.877 690.972 600.982 691.867 599.878 691.867C598.774 691.867 597.879 690.972 597.879 689.868C597.879 688.764 598.774 687.869 599.878 687.869C600.982 687.869 601.877 688.764 601.877 689.868Z" fill="white"/>
<path fillRule="evenodd" clipRule="evenodd" d="M616.276 715.429C616.276 717.059 614.953 718.381 613.323 718.381C611.692 718.381 610.371 717.059 610.371 715.429C610.371 713.798 611.692 712.476 613.323 712.476C614.953 712.476 616.276 713.798 616.276 715.429Z" fill="white"/>
<path d="M547.312 721.977C547.587 721.715 548.023 721.725 548.285 722L548.411 722.136L548.506 722.242C548.68 722.436 548.881 722.667 549.106 722.936C549.746 723.699 550.457 724.61 551.223 725.67C553.403 728.689 555.582 732.292 557.614 736.472C563.413 748.4 566.891 762.567 566.891 778.922C566.891 779.303 566.583 779.611 566.203 779.611C565.822 779.611 565.514 779.303 565.514 778.922C565.514 762.783 562.086 748.82 556.376 737.074C554.379 732.968 552.242 729.433 550.106 726.476C549.405 725.505 548.751 724.663 548.161 723.952L548.051 723.82C547.883 723.62 547.731 723.443 547.594 723.288L547.422 723.095C547.358 723.024 547.313 722.976 547.289 722.951C547.026 722.676 547.037 722.24 547.312 721.977Z" fill="#253368"/>
<path d="M599.326 726.796C599.554 726.492 599.985 726.429 600.29 726.656C600.594 726.884 600.657 727.315 600.43 727.62C597.922 730.978 595.608 734.589 593.48 738.417C588.981 746.509 585.503 755.184 582.921 763.86C582.018 766.897 581.291 769.715 580.725 772.244L580.611 772.762C580.476 773.381 580.359 773.945 580.26 774.45L580.196 774.781L580.081 775.406C580.018 775.781 579.663 776.033 579.288 775.97C578.913 775.907 578.66 775.552 578.724 775.177L578.763 774.955C578.795 774.776 578.834 774.566 578.881 774.324L578.995 773.751C579.106 773.205 579.234 772.601 579.382 771.943L579.507 771.391C580.06 768.977 580.754 766.316 581.602 763.467C584.21 754.702 587.725 745.935 592.276 737.748C594.433 733.868 596.781 730.206 599.326 726.796Z" fill="#253368"/>
<path d="M611.357 640.9C611.621 641.153 611.64 641.564 611.408 641.84L611.378 641.874C611.365 641.888 611.335 641.919 611.291 641.966L611.122 642.151L611.024 642.26C610.727 642.59 610.383 642.988 609.994 643.453C608.879 644.787 607.635 646.392 606.295 648.269C602.458 653.64 598.619 660.11 595.034 667.684C589.066 680.295 584.417 694.678 581.6 710.847C578.179 730.481 577.612 751.93 580.413 775.209C580.458 775.587 580.189 775.93 579.811 775.975C579.434 776.02 579.091 775.751 579.046 775.374C576.229 751.961 576.799 730.377 580.243 710.611C583.082 694.317 587.769 679.816 593.789 667.095C597.41 659.445 601.291 652.905 605.174 647.469L605.475 647.05C606.672 645.392 607.792 643.949 608.811 642.722L608.937 642.57C609.303 642.132 609.632 641.752 609.921 641.428L609.999 641.341C610.089 641.24 610.169 641.152 610.24 641.075L610.384 640.921C610.647 640.646 611.083 640.637 611.357 640.9Z" fill="#253368"/>
<path d="M551.764 681.728C552.089 681.531 552.512 681.635 552.709 681.96L552.779 682.076C552.834 682.169 552.898 682.28 552.972 682.409L553.081 682.598C553.265 682.923 553.473 683.295 553.701 683.716L553.891 684.067C554.591 685.37 555.358 686.879 556.178 688.587L556.29 688.821C558.962 694.421 561.633 700.968 564.126 708.409C571.105 729.242 575.351 752.887 575.509 778.918C575.512 779.298 575.205 779.609 574.825 779.611C574.445 779.613 574.135 779.307 574.132 778.927C573.975 753.048 569.755 729.546 562.82 708.846C560.391 701.595 557.792 695.201 555.191 689.718L555.047 689.415C554.158 687.552 553.331 685.927 552.584 684.545L552.359 684.132C552.144 683.738 551.95 683.393 551.779 683.095L551.698 682.955L551.532 682.673C551.335 682.348 551.439 681.925 551.764 681.728Z" fill="#253368"/>
<path fillRule="evenodd" clipRule="evenodd" d="M604.751 813.073H545.24C542.023 813.073 539.391 810.441 539.391 807.224V763.808C539.391 760.591 542.023 757.959 545.24 757.959H604.751C607.968 757.959 610.6 760.591 610.6 763.808V807.224C610.6 810.441 607.968 813.073 604.751 813.073Z" fill="#253368"/>
<path fillRule="evenodd" clipRule="evenodd" d="M346.552 237.362H47.3259V211.891C47.3259 206.365 52.0415 201.886 57.8575 201.886H336.02C341.837 201.886 346.552 206.365 346.552 211.891V237.362Z" fill="#253368"/>
<path fillRule="evenodd" clipRule="evenodd" d="M336.02 495.732H57.8575C52.0415 495.732 47.3259 491.046 47.3259 485.264V236.028H346.552V485.264C346.552 491.046 341.837 495.732 336.02 495.732Z" fill="#CCD7EE"/>
<path fillRule="evenodd" clipRule="evenodd" d="M71.8748 219.526C71.8748 223.119 68.9437 226.032 65.3281 226.032C61.7129 226.032 58.7822 223.119 58.7822 219.526C58.7822 215.933 61.7129 213.02 65.3281 213.02C68.9437 213.02 71.8748 215.933 71.8748 219.526Z" fill="#FF7946"/>
<path fillRule="evenodd" clipRule="evenodd" d="M94.7868 219.526C94.7868 223.119 91.856 226.032 88.2403 226.032C84.625 226.032 81.6942 223.119 81.6942 219.526C81.6942 215.933 84.625 213.02 88.2403 213.02C91.856 213.02 94.7868 215.933 94.7868 219.526Z" fill="#FAAD14"/>
<path fillRule="evenodd" clipRule="evenodd" d="M120.972 219.526C120.972 223.119 118.041 226.032 114.425 226.032C110.81 226.032 107.879 223.119 107.879 219.526C107.879 215.933 110.81 213.02 114.425 213.02C118.041 213.02 120.972 215.933 120.972 219.526Z" fill="#7CB305"/>
<path fillRule="evenodd" clipRule="evenodd" d="M80.0636 461.867C78.2523 461.867 76.7845 460.398 76.7845 458.586V268.348C76.7845 266.536 78.2523 265.066 80.0636 265.066H317.355C319.166 265.066 320.634 266.536 320.634 268.348V458.586C320.634 460.398 319.166 461.867 317.355 461.867H80.0636Z" fill="white"/>
<path fillRule="evenodd" clipRule="evenodd" d="M217.163 381.322V433.112C217.163 436.036 214.758 438.431 211.819 438.431H111.664C108.725 438.431 106.317 436.036 106.317 433.112V381.322C106.317 378.395 108.725 376.003 111.664 376.003H211.819C214.758 376.003 217.163 378.395 217.163 381.322Z" fill="#FAAD14"/>
<path fillRule="evenodd" clipRule="evenodd" d="M293.191 349.493C293.191 352.417 290.786 354.812 287.846 354.812H111.664C108.725 354.812 106.317 352.417 106.317 349.493V297.7C106.317 294.776 108.725 292.384 111.664 292.384H287.846C290.786 292.384 293.191 294.776 293.191 297.7V349.493Z" fill="#597EF7"/>
<path fillRule="evenodd" clipRule="evenodd" d="M293.061 433.112C293.061 436.036 290.655 438.431 287.716 438.431H242.182C239.242 438.431 236.837 436.036 236.837 433.112V381.322C236.837 378.395 239.242 376.003 242.182 376.003H287.716C290.655 376.003 293.061 378.395 293.061 381.322V433.112Z" fill="#FF7946"/>
<path fillRule="evenodd" clipRule="evenodd" d="M408.83 744.874H478.84V730.564H408.83V744.874Z" fill="#253368"/>
<path fillRule="evenodd" clipRule="evenodd" d="M461.42 584.444L480.168 815.461H496.266L477.518 584.444H461.42Z" fill="#597EF7"/>
<path fillRule="evenodd" clipRule="evenodd" d="M410.152 584.444L391.404 815.461H407.502L426.25 584.444H410.152Z" fill="#597EF7"/>
<path fillRule="evenodd" clipRule="evenodd" d="M403.317 599.48C395.011 599.48 388.279 592.748 388.279 584.444C388.279 576.14 395.011 569.406 403.317 569.406H485.824C494.128 569.406 500.862 576.14 500.862 584.444C500.862 592.748 494.128 599.48 485.824 599.48H403.317Z" fill="#A3B5D6"/>
<path d="M343 254.326C367.481 254.326 387.326 234.481 387.326 210C387.326 185.519 367.481 165.674 343 165.674C318.519 165.674 298.674 185.519 298.674 210C298.674 234.481 318.519 254.326 343 254.326Z" fill="#597EF7"/>
<path d="M343 251.16C365.732 251.16 384.16 232.732 384.16 210C384.16 187.268 365.732 168.84 343 168.84C320.268 168.84 301.84 187.268 301.84 210C301.84 232.732 320.268 251.16 343 251.16Z" fill="#A3B5D6"/>
<path d="M343 249.676C364.912 249.676 382.676 231.912 382.676 210C382.676 188.088 364.912 170.324 343 170.324C321.088 170.324 303.324 188.088 303.324 210C303.324 231.912 321.088 249.676 343 249.676Z" fill="white"/>
<path d="M343 184.762C343.874 184.762 344.583 185.471 344.583 186.345V208.839H341.417V186.345C341.417 185.471 342.126 184.762 343 184.762Z" fill="#253368"/>
<path d="M359.12 210C359.12 210.874 358.411 211.583 357.537 211.583H343V208.417H357.537C358.411 208.417 359.12 209.126 359.12 210Z" fill="#253368"/>
<path d="M343 213.661C345.022 213.661 346.661 212.022 346.661 210C346.661 207.978 345.022 206.339 343 206.339C340.978 206.339 339.339 207.978 339.339 210C339.339 212.022 340.978 213.661 343 213.661Z" fill="#FF7946"/>
<path d="M344.579 176.755C344.579 175.881 343.87 175.172 342.996 175.172C342.122 175.172 341.413 175.881 341.413 176.755V179.921C341.413 180.796 342.122 181.505 342.996 181.505C343.87 181.505 344.579 180.796 344.579 179.921V176.755Z" fill="#E4EBF7"/>
<path d="M318.37 185.375C318.988 184.757 319.991 184.757 320.609 185.375L322.848 187.614C323.466 188.232 323.466 189.234 322.848 189.853C322.23 190.471 321.227 190.471 320.609 189.853L318.37 187.614C317.752 186.996 317.752 185.993 318.37 185.375Z" fill="#E4EBF7"/>
<path d="M308.172 210.004C308.172 209.13 308.881 208.421 309.755 208.421H312.922C313.796 208.421 314.505 209.13 314.505 210.004C314.505 210.878 313.796 211.587 312.922 211.587H309.755C308.881 211.587 308.172 210.878 308.172 210.004Z" fill="#E4EBF7"/>
<path d="M318.376 234.63C317.757 234.012 317.757 233.01 318.376 232.391L320.614 230.152C321.233 229.534 322.235 229.534 322.853 230.152C323.471 230.771 323.471 231.773 322.853 232.391L320.614 234.63C319.996 235.248 318.994 235.248 318.376 234.63Z" fill="#E4EBF7"/>
<path d="M341.421 243.245C341.421 244.119 342.13 244.828 343.004 244.828C343.878 244.828 344.587 244.119 344.587 243.245V240.079C344.587 239.204 343.878 238.495 343.004 238.495C342.13 238.495 341.421 239.204 341.421 240.079V243.245Z" fill="#E4EBF7"/>
<path d="M367.63 234.624C367.011 235.242 366.009 235.242 365.391 234.624L363.152 232.385C362.534 231.767 362.534 230.765 363.152 230.146C363.77 229.528 364.773 229.528 365.391 230.146L367.63 232.385C368.248 233.003 368.248 234.006 367.63 234.624Z" fill="#E4EBF7"/>
<path d="M377.828 209.996C377.828 210.87 377.119 211.579 376.245 211.579H373.078C372.204 211.579 371.495 210.87 371.495 209.996C371.495 209.122 372.204 208.413 373.078 208.413H376.245C377.119 208.413 377.828 209.122 377.828 209.996Z" fill="#E4EBF7"/>
<path d="M367.625 185.371C368.243 185.989 368.243 186.991 367.625 187.61L365.386 189.848C364.768 190.467 363.765 190.467 363.147 189.848C362.529 189.23 362.529 188.228 363.147 187.61L365.386 185.371C366.004 184.753 367.006 184.753 367.625 185.371Z" fill="#E4EBF7"/>
<path fillRule="evenodd" clipRule="evenodd" d="M303.693 515.743C305.262 519.99 309.483 522.66 313.993 522.259L405.413 514.132C415.55 513.232 422.767 503.88 421.065 493.845C419.362 483.793 409.438 477.338 399.558 479.858L310.624 502.542C304.855 504.013 301.628 510.157 303.693 515.743Z" fill="#FFC999"/>
<path fillRule="evenodd" clipRule="evenodd" d="M262.351 686.299C262.351 686.299 247.588 698.929 225.797 691.018C217.6 688.043 209.979 693.593 214.411 701.174C217.694 706.789 225.404 711.959 236.043 715.855C250.294 721.074 251.469 712.884 258.559 717.16C262.669 719.638 272.208 722.52 274.491 719.657C278.48 714.655 279.185 711.365 283.06 705.024C301.926 674.144 295.105 660.811 262.351 686.299Z" fill="#253368"/>
<path fillRule="evenodd" clipRule="evenodd" d="M338.424 686.05C338.424 686.05 334.71 698.913 317.557 712.517C306.306 721.44 318.267 730.894 342.032 720.425C355.582 714.455 350.404 708.826 358.371 706.858C362.987 705.716 371.608 701.357 371.078 698.198C370.15 692.675 368.23 690.263 366.246 684.016C356.583 653.596 342.189 649.994 338.424 686.05Z" fill="#253368"/>
<path fillRule="evenodd" clipRule="evenodd" d="M366.743 678.591L351.843 544.964C350.637 534.143 339.206 526.46 326.903 528.201C315.025 529.882 307.016 539.711 309.1 550.051L335.81 682.482C335.81 682.482 349.231 687.108 366.743 678.591Z" fill="#4E5C93"/>
<path fillRule="evenodd" clipRule="evenodd" d="M506.388 514.499C506.388 514.499 430.126 520.26 424.945 512.754C422.664 509.451 421.028 525.955 416.849 553.189C423.585 565.643 436.485 575.644 453.376 575.174C480.993 574.407 506.149 571.292 508.994 552.806C511.04 539.508 509.337 525.285 506.388 514.499Z" fill="#ADC6FF"/>
<path fillRule="evenodd" clipRule="evenodd" d="M423.773 505.796L423.021 514.971C423.021 514.971 430.369 516.244 456.046 517.557C482.096 518.889 506.317 515.882 506.317 515.882L506.433 507.531C506.433 507.531 454.016 509.078 423.773 505.796Z" fill="#ADC6FF"/>
<path fillRule="evenodd" clipRule="evenodd" d="M330.416 554.875C330.894 566.632 340.58 575.909 352.348 575.877L483.531 575.516C498.757 575.473 510.904 562.79 510.287 547.573C509.668 532.358 496.534 520.699 481.353 521.893L350.573 532.166C338.843 533.087 329.938 543.119 330.416 554.875Z" fill="#ADC6FF"/>
<path fillRule="evenodd" clipRule="evenodd" d="M289.43 696.884L370.26 565.918C376.807 555.312 373.035 541.383 362.034 535.526C351.411 529.873 338.215 533.996 332.704 544.695L262.102 681.715C262.102 681.715 269.578 694.06 289.43 696.884Z" fill="#ADC6FF"/>
<path fillRule="evenodd" clipRule="evenodd" d="M401.575 509.957C410.737 511.227 419.295 505.125 421.078 496.052L437.246 413.859C439.623 401.771 431.35 390.169 419.146 388.476C407.087 386.805 396.055 395.495 394.858 407.611L386.619 490.972C385.699 500.29 392.301 508.671 401.575 509.957Z" fill="#FFC999"/>
<path fillRule="evenodd" clipRule="evenodd" d="M386.642 460.541L427.189 465.993L435.45 411.857C437.258 400.007 428.999 388.978 417.118 387.381C405.239 385.783 394.358 394.239 392.972 406.146L386.642 460.541Z" fill="#597EF7"/>
<path fillRule="evenodd" clipRule="evenodd" d="M439.256 373.012L437.694 337.625L469.526 335.954L474.863 369.396C476.475 379.498 469.32 388.898 459.156 390.035C448.846 391.189 439.713 383.376 439.256 373.012Z" fill="#FFC999"/>
<path fillRule="evenodd" clipRule="evenodd" d="M429.059 335.897C429.059 335.897 423.708 331.377 422.014 334.957C420.318 338.536 425.11 350.231 430.39 350.012C437.439 349.718 429.059 335.897 429.059 335.897Z" fill="#FFC999"/>
<path fillRule="evenodd" clipRule="evenodd" d="M462.726 363.686C462.726 363.686 453.284 373.161 438.801 366.184C428.374 361.162 424.959 339.507 425.235 323.332C425.392 314.179 429.07 308.892 437.617 305.324C446.167 301.757 470.07 299.252 472.911 325.854C476.073 355.483 462.726 363.686 462.726 363.686Z" fill="#FFC999"/>
<path d="M440.962 325.992C441.187 325.911 441.433 326.005 441.55 326.205L441.587 326.284L443.58 331.768C443.597 331.813 443.606 331.86 443.609 331.908L443.607 331.981L442.18 346.871L447.977 346.336C448.218 346.313 448.435 346.471 448.494 346.698L448.508 346.777C448.53 347.018 448.372 347.234 448.145 347.293L448.067 347.307L441.683 347.897C441.406 347.923 441.17 347.713 441.152 347.446L441.153 347.365L442.626 331.996L440.67 326.617C440.589 326.392 440.683 326.146 440.882 326.03L440.962 325.992Z" fill="#DD936F"/>
<path d="M460.588 322.186C461.308 321.967 462.069 322.372 462.289 323.092C462.508 323.811 462.103 324.573 461.383 324.792C459.948 325.23 457.51 325.36 453.51 325.336L451.929 325.32L448.275 325.27C447.523 325.263 446.918 324.648 446.924 323.896C446.931 323.144 447.546 322.539 448.298 322.545L453.113 322.609L454.244 322.614C457.506 322.616 459.595 322.489 460.588 322.186Z" fill="#253368"/>
<path d="M452.832 350.096C453.185 349.966 453.577 350.147 453.707 350.5C453.837 350.853 453.656 351.245 453.303 351.375L453.053 351.461C452.912 351.506 452.733 351.562 452.515 351.625C451.89 351.807 451.162 351.988 450.337 352.157C447.868 352.663 445.065 352.954 441.988 352.923C441.612 352.92 441.31 352.612 441.314 352.235C441.317 351.859 441.625 351.557 442.002 351.561C444.979 351.591 447.686 351.309 450.064 350.823C450.72 350.688 451.311 350.546 451.831 350.403L452.135 350.317C452.484 350.216 452.719 350.138 452.832 350.096Z" fill="#FF7946"/>
<path fillRule="evenodd" clipRule="evenodd" d="M471.039 337.569L475.181 326.788C475.181 326.788 476.961 311.67 472.889 305.661C466.574 296.336 454.445 297.843 446.962 295.946C439.48 294.05 439.3 291.616 436.415 292.317C433.53 293.02 423.006 302.078 422.578 310.471C422.199 317.85 425.94 336.169 425.94 336.169C425.94 336.169 426.308 319.572 427.446 315.081C432.919 312.11 453.681 309.871 462.625 311.659C462.625 311.659 463.946 317.162 464.781 321.047C469.763 323.894 471.039 337.569 471.039 337.569Z" fill="#253368"/>
<path d="M470.529 351.305C470.624 351.053 470.906 350.926 471.158 351.022C471.41 351.117 471.536 351.399 471.441 351.651C470.289 354.687 468.859 357.317 467.211 359.568C465.609 361.758 463.89 363.478 462.167 364.779C461.561 365.237 460.997 365.61 460.489 365.905C460.179 366.085 459.953 366.201 459.85 366.246C452.806 369.901 446.322 369.862 440.833 367.596C440.015 367.258 439.294 366.896 438.674 366.533L438.38 366.356C438.159 366.219 437.997 366.109 437.897 366.035C437.68 365.874 437.635 365.569 437.795 365.353C437.956 365.136 438.261 365.091 438.478 365.251L438.604 365.34C438.732 365.427 438.921 365.547 439.168 365.692C439.749 366.033 440.431 366.375 441.205 366.694C446.34 368.815 452.386 368.892 459.027 365.572L459.604 365.281C459.706 365.228 459.839 365.155 459.999 365.062C460.474 364.786 461.005 364.435 461.579 364.001C463.228 362.755 464.88 361.103 466.424 358.992C468.02 356.811 469.408 354.259 470.529 351.305Z" fill="#DD936F"/>
<path d="M446.652 330.828C447.189 330.795 447.652 331.205 447.685 331.742C447.715 332.244 447.36 332.68 446.876 332.763L446.77 332.775L442.061 333.061C441.523 333.094 441.06 332.684 441.028 332.147C440.997 331.645 441.352 331.208 441.837 331.126L441.942 331.114L446.652 330.828Z" fill="#253368"/>
<path d="M443.956 333.518C444.84 333.431 445.748 333.586 446.636 333.891C447.063 334.038 447.395 334.187 447.599 334.295C448.075 334.547 448.256 335.138 448.004 335.614C447.77 336.056 447.244 336.244 446.789 336.066L446.554 335.954C446.421 335.893 446.232 335.815 446.002 335.736C445.356 335.514 444.711 335.404 444.146 335.46C443.641 335.509 443.231 335.686 442.902 336.021L442.782 336.154C442.44 336.57 441.825 336.63 441.409 336.287C440.993 335.945 440.934 335.33 441.276 334.914C441.971 334.071 442.897 333.622 443.956 333.518Z" fill="#253368"/>
<path d="M431.983 322.899C434.041 322.695 436.199 322.989 438.316 323.599C439.307 323.885 440.071 324.173 440.523 324.374C441.21 324.681 441.518 325.487 441.211 326.174C440.905 326.861 440.099 327.169 439.412 326.862L439.234 326.788C439.154 326.756 439.054 326.716 438.935 326.671C438.526 326.517 438.065 326.362 437.562 326.217C435.749 325.695 433.917 325.445 432.251 325.61C430.792 325.754 429.549 326.212 428.554 327.023C427.97 327.498 427.112 327.411 426.637 326.828C426.162 326.245 426.249 325.387 426.832 324.911C428.274 323.736 430.022 323.092 431.983 322.899Z" fill="#253368"/>
<path d="M449.051 355.822C449.32 355.802 449.554 356.003 449.573 356.272C449.591 356.514 449.43 356.727 449.201 356.782L449.123 356.794L445.289 357.078C445.021 357.098 444.787 356.896 444.767 356.627C444.749 356.386 444.911 356.172 445.139 356.117L445.218 356.105L449.051 355.822Z" fill="#DD936F"/>
<path d="M471.775 328.896C472.312 328.853 472.782 329.254 472.825 329.791C472.864 330.292 472.518 330.735 472.035 330.826L471.929 330.84L464.217 331.452C463.68 331.495 463.21 331.094 463.168 330.557C463.128 330.056 463.475 329.613 463.958 329.521L464.063 329.507L471.775 328.896Z" fill="#253368"/>
<path fillRule="evenodd" clipRule="evenodd" d="M463.45 328.998L448.719 330.084C447.692 330.16 446.92 331.051 447.003 332.08C447.158 333.998 447.493 337.066 448.185 339.662C449.003 342.726 451.937 344.422 455.106 344.335C459.063 344.226 462.605 343.97 464.244 341.79C466.742 338.469 465.695 333.384 465.437 330.668C465.342 329.671 464.448 328.925 463.45 328.998Z" fill="white"/>
<path d="M463.426 328.674L448.695 329.76C447.486 329.85 446.581 330.899 446.679 332.106C446.903 334.871 447.283 337.538 447.871 339.746C448.698 342.844 451.655 344.755 455.115 344.66L455.836 344.637C460.762 344.458 463.085 343.873 464.504 341.985C465.521 340.633 466.037 338.94 466.167 336.917C466.248 335.643 466.186 334.419 465.999 332.725L465.789 330.916C465.778 330.817 465.769 330.726 465.761 330.638C465.649 329.466 464.602 328.587 463.426 328.674ZM463.474 329.322C464.298 329.261 465.036 329.88 465.114 330.699L465.16 331.142L465.308 332.401C465.526 334.271 465.603 335.552 465.518 336.875C465.396 338.782 464.916 340.356 463.984 341.595C462.668 343.346 460.31 343.867 455.097 344.01C451.922 344.098 449.243 342.366 448.499 339.579C447.923 337.416 447.548 334.783 447.327 332.053C447.258 331.207 447.893 330.471 448.743 330.408L463.474 329.322Z" fill="#253368"/>
<path fillRule="evenodd" clipRule="evenodd" d="M440.464 330.528L423.788 331.757C423.349 334.24 424.639 343.62 427.651 345.429C431.633 347.154 439.311 345.714 440.365 343.579C441.962 340.341 442.2 334.37 441.981 331.824C441.914 331.047 441.24 330.471 440.464 330.528Z" fill="white"/>
<path d="M440.44 330.204L423.764 331.433C423.615 331.444 423.493 331.554 423.468 331.7C422.83 335.31 424.793 344.092 427.484 345.708C431.475 347.439 439.457 346.152 440.657 343.723C442.04 340.918 442.616 335.408 442.305 331.796C442.223 330.842 441.393 330.134 440.44 330.204ZM440.487 330.852C441.086 330.808 441.606 331.252 441.657 331.852C441.959 335.356 441.394 340.757 440.074 343.435C439.057 345.495 431.452 346.721 427.78 345.131L427.649 345.045C425.434 343.456 423.661 335.74 424.051 332.209L424.069 332.062L440.487 330.852Z" fill="#253368"/>
<path d="M464.96 328.011C465.496 327.957 465.974 328.348 466.027 328.884C466.077 329.385 465.74 329.834 465.259 329.936L465.154 329.952L446.93 331.776C446.394 331.83 445.916 331.439 445.863 330.903C445.813 330.403 446.15 329.953 446.631 329.851L446.736 329.835L464.96 328.011Z" fill="#253368"/>
<path d="M441.531 330.094C442.069 330.062 442.531 330.472 442.563 331.01C442.593 331.512 442.238 331.947 441.753 332.029L441.647 332.041L423.737 333.108C423.199 333.14 422.737 332.73 422.705 332.192C422.675 331.69 423.03 331.255 423.515 331.173L423.621 331.161L441.531 330.094Z" fill="#253368"/>
<path fillRule="evenodd" clipRule="evenodd" d="M472.526 329.046C474.184 326.901 477.032 326.036 479.344 328.03C483.068 331.244 481.514 344.943 472.631 346.521C469.181 346.438 469.941 332.394 472.526 329.046Z" fill="#FFC999"/>
<path d="M476.433 329.84C476.672 329.717 476.966 329.812 477.089 330.051C477.212 330.291 477.117 330.585 476.877 330.708L476.763 330.771C476.692 330.813 476.6 330.869 476.494 330.94C476.194 331.14 475.893 331.377 475.614 331.647C474.551 332.68 474.101 333.878 474.557 335.265C474.676 335.624 474.834 335.789 475.202 335.967L475.445 336.077C476.233 336.42 476.595 336.748 476.756 337.548C477.003 338.785 476.488 339.782 475.517 340.519C475.055 340.87 474.596 341.091 474.275 341.2C474.02 341.288 473.743 341.151 473.656 340.897C473.568 340.642 473.705 340.364 473.959 340.277L474.045 340.245C474.099 340.223 474.169 340.192 474.251 340.153C474.482 340.041 474.714 339.904 474.927 339.742C475.627 339.211 475.963 338.561 475.799 337.74C475.723 337.357 475.603 337.222 475.178 337.026L474.938 336.92C474.247 336.614 473.864 336.278 473.631 335.57C473.041 333.778 473.628 332.216 474.935 330.947C475.26 330.632 475.606 330.359 475.954 330.128C476.164 329.988 476.331 329.892 476.433 329.84Z" fill="#DD936F"/>
<path d="M435.501 334.677C437.378 334.539 438.986 336.127 439.138 338.179C439.166 338.554 438.884 338.881 438.509 338.909C438.134 338.936 437.807 338.655 437.779 338.279C437.68 336.94 436.684 335.956 435.601 336.035C434.518 336.115 433.678 337.234 433.776 338.575C433.803 338.95 433.521 339.276 433.146 339.304C432.771 339.331 432.445 339.049 432.417 338.674C432.267 336.622 433.624 334.815 435.501 334.677Z" fill="#253368"/>
<path d="M456.315 333.143C458.193 333.004 459.8 334.593 459.952 336.645C459.979 337.02 459.698 337.347 459.323 337.374C458.947 337.402 458.621 337.12 458.593 336.745C458.494 335.405 457.499 334.422 456.415 334.501C455.333 334.581 454.493 335.7 454.591 337.04C454.619 337.416 454.337 337.742 453.961 337.769C453.586 337.797 453.26 337.515 453.232 337.14C453.082 335.088 454.439 333.281 456.315 333.143Z" fill="#253368"/>
<path fillRule="evenodd" clipRule="evenodd" d="M505.859 492.1C505.859 492.1 506.195 458.27 508.226 443.035C510.528 425.775 517.667 394.424 512.411 390.219C504.74 384.082 481.229 376.436 481.229 376.436C481.229 376.436 469.446 377.788 456.197 380.609C445.708 382.843 447.159 376.252 434.443 378.354C429.058 379.244 410.027 385.853 406.546 389.706C397.143 400.114 404.197 419.172 408.08 437.781C413.879 465.588 422.91 490.969 422.91 490.969C422.91 490.969 416.554 503.256 421.924 509.393C424.947 512.532 424.53 511.115 441.283 511.156C460.354 511.202 500.169 510.224 503.049 509.201C512.315 505.907 505.859 492.1 505.859 492.1Z" fill="#597EF7"/>
<path fillRule="evenodd" clipRule="evenodd" d="M439.148 373.231L452.678 380.852L438.988 394.982L433.686 378.722L439.148 373.231Z" fill="#597EF7"/>
<path fillRule="evenodd" clipRule="evenodd" d="M452.361 381.184L464.39 398.035L482.072 377.258L474.234 367.801L452.361 381.184Z" fill="#597EF7"/>
<path d="M451.541 382.522C451.914 382.568 452.18 382.908 452.134 383.281L452.083 383.726L451.977 384.765L451.872 385.908C451.758 387.209 451.645 388.698 451.538 390.37L451.449 391.83C450.789 403.14 450.702 417.148 451.528 433.632C452.713 457.31 455.662 483.181 460.759 510.996C460.827 511.366 460.582 511.721 460.212 511.788C459.842 511.856 459.487 511.611 459.419 511.241C454.311 483.367 451.355 457.437 450.167 433.7L450.064 431.557C449.332 415.593 449.46 402.009 450.133 391.012L450.178 390.283C450.286 388.6 450.4 387.1 450.515 385.788L450.621 384.634L450.775 383.172C450.777 383.15 450.78 383.131 450.782 383.115C450.824 382.773 451.113 382.521 451.448 382.517L451.541 382.522Z" fill="#253368"/>
<path d="M491.71 415.121L478.101 415.569C473.922 415.703 469.524 415.841 464.968 415.98C464.588 415.992 464.291 416.312 464.308 416.691L464.377 418.122C464.621 422.823 465.006 426.833 465.494 430.202C465.78 432.172 466.085 433.813 466.392 435.146L466.469 435.473C466.563 435.865 466.652 436.206 466.735 436.499L466.795 436.709C466.856 436.916 466.901 437.054 466.928 437.127C466.973 437.255 467.056 437.366 467.165 437.446L479.822 446.779C480.063 446.957 480.393 446.957 480.633 446.778L492.651 437.827C492.828 437.695 492.931 437.486 492.926 437.265L492.415 415.785C492.406 415.406 492.089 415.108 491.71 415.121ZM491.068 416.505L491.555 436.945L480.224 445.383L468.149 436.48L468.102 436.323C468.009 436.01 467.906 435.622 467.794 435.155C467.495 433.911 467.196 432.361 466.913 430.483L466.771 429.503C466.325 426.3 465.972 422.522 465.742 418.127L465.701 417.321L480.625 416.851L491.068 416.505Z" fill="#253368"/>
<path fillRule="evenodd" clipRule="evenodd" d="M452.517 397.131C452.642 398.338 453.56 399.231 454.564 399.126C455.57 399.022 456.285 397.959 456.158 396.752C456.033 395.545 455.116 394.651 454.111 394.756C453.105 394.861 452.391 395.924 452.517 397.131Z" fill="white"/>
<path fillRule="evenodd" clipRule="evenodd" d="M452.897 421.744C453.024 422.951 453.941 423.845 454.946 423.74C455.951 423.635 456.665 422.572 456.54 421.365C456.415 420.158 455.497 419.265 454.491 419.37C453.486 419.475 452.772 420.537 452.897 421.744Z" fill="white"/>
<path fillRule="evenodd" clipRule="evenodd" d="M453.665 444.567C453.79 445.774 454.708 446.668 455.714 446.563C456.719 446.458 457.433 445.395 457.308 444.188C457.181 442.981 456.264 442.088 455.259 442.192C454.253 442.297 453.539 443.36 453.665 444.567Z" fill="white"/>
<path fillRule="evenodd" clipRule="evenodd" d="M455.583 469.307C455.708 470.514 456.625 471.408 457.631 471.303C458.636 471.198 459.35 470.135 459.225 468.928C459.099 467.721 458.181 466.828 457.177 466.932C456.172 467.037 455.456 468.1 455.583 469.307Z" fill="white"/>
<path fillRule="evenodd" clipRule="evenodd" d="M459.312 496.819C459.438 498.026 460.356 498.92 461.361 498.815C462.365 498.71 463.08 497.648 462.954 496.441C462.828 495.234 461.911 494.34 460.906 494.445C459.901 494.55 459.187 495.612 459.312 496.819Z" fill="white"/>
<path d="M479.632 376.02C479.847 375.712 480.272 375.636 480.58 375.851C480.861 376.046 480.949 376.415 480.802 376.712L480.75 376.799L467.743 395.478C467.525 395.79 467.1 395.859 466.797 395.649L466.718 395.585L452.087 381.874C451.812 381.616 451.798 381.185 452.056 380.911C452.29 380.661 452.667 380.627 452.94 380.816L453.018 380.88L467.074 394.052L479.632 376.02Z" fill="#253368"/>
<path d="M432.926 379.963C433.248 379.838 433.606 379.973 433.769 380.266L433.809 380.35L440.013 396.257L451.553 380.871C451.758 380.598 452.129 380.523 452.421 380.681L452.506 380.735C452.78 380.94 452.855 381.312 452.697 381.604L452.643 381.689L440.368 398.054C440.068 398.455 439.465 398.4 439.23 397.981L439.189 397.893L432.539 380.845C432.403 380.495 432.576 380.1 432.926 379.963Z" fill="#253368"/>
<path d="M406.427 418.296C406.801 418.257 407.135 418.529 407.174 418.904C408.181 428.691 409.655 437.454 411.793 446.756L412.103 448.089C413.338 453.339 414.754 458.693 416.742 465.726L424.079 491.296C424.122 491.449 424.11 491.613 424.045 491.759C421.038 498.474 421.365 503.78 423.693 507.779C424.083 508.449 424.5 509.019 424.914 509.491L425.107 509.703L425.278 509.88L426.018 509.932C430.281 510.217 434.892 510.406 439.802 510.505L440.94 510.526C451.262 510.704 462.283 510.495 473.187 510.029L475.23 509.939C478.079 509.809 480.715 509.67 483.09 509.531L486.9 509.29C487.276 509.264 487.601 509.546 487.628 509.922C487.655 510.297 487.372 510.623 486.997 510.649L484.55 510.808L481.846 510.967C480.047 511.068 478.114 511.168 476.066 511.264L475.292 511.3C463.7 511.829 451.916 512.077 440.917 511.888C435.175 511.789 429.826 511.572 424.944 511.223C424.799 511.213 424.662 511.156 424.552 511.063C424.024 510.615 423.266 509.752 422.516 508.465C420.017 504.173 419.627 498.538 422.625 491.604L422.701 491.43L416.067 468.338L415.43 466.094C413.438 459.044 412.017 453.673 410.777 448.401C408.457 438.542 406.88 429.356 405.819 419.043C405.78 418.669 406.052 418.334 406.427 418.296Z" fill="#253368"/>
<path fillRule="evenodd" clipRule="evenodd" d="M494.394 511.323C503.628 511.827 511.649 505.033 512.672 495.843L521.943 412.59C523.306 400.346 514.097 389.473 501.796 388.801C489.638 388.139 479.368 397.718 479.183 409.891L477.91 493.648C477.769 503.01 485.046 510.813 494.394 511.323Z" fill="#FFC999"/>
<path fillRule="evenodd" clipRule="evenodd" d="M478.459 461.729L519.343 463.215L522.306 408.533C522.953 396.563 513.661 386.39 501.682 385.954C489.703 385.518 479.696 394.991 479.474 406.975L478.459 461.729Z" fill="#597EF7"/>
<path d="M479.435 407.182C479.78 407.188 480.061 407.45 480.1 407.783L480.104 407.875L479.151 461.072L519.368 462.534C519.712 462.547 519.988 462.813 520.021 463.147L520.024 463.24C520.011 463.584 519.745 463.86 519.411 463.893L519.318 463.896L478.434 462.409C478.094 462.397 477.82 462.137 477.782 461.808L477.778 461.717L478.742 407.851C478.749 407.475 479.059 407.175 479.435 407.182Z" fill="#253368"/>
<path fillRule="evenodd" clipRule="evenodd" d="M349.3 542.38L429.467 536.09L352.872 506.155L286.322 517.907L349.3 542.38Z" fill="#CCD7EE"/>
<path fillRule="evenodd" clipRule="evenodd" d="M346.749 536.625L404.973 532.056L350.708 510.315L301.011 518.851L346.749 536.625Z" fill="#4E5C93"/>
<path fillRule="evenodd" clipRule="evenodd" d="M429.097 540.172L429.48 536.118L347.715 541.888L348.741 546.33L429.097 540.172Z" fill="#4E5C93"/>
<path d="M339.446 513.064C339.514 512.915 339.678 512.839 339.832 512.874L339.897 512.897L383.845 533.056C384.016 533.135 384.091 533.337 384.013 533.508C383.944 533.657 383.781 533.734 383.626 533.698L383.561 533.675L339.613 513.516C339.442 513.438 339.367 513.235 339.446 513.064Z" fill="#CCD7EE"/>
<path d="M345.638 511.133C345.704 510.982 345.866 510.903 346.021 510.936L346.086 510.957L395.301 532.543C395.473 532.619 395.552 532.82 395.476 532.992C395.41 533.143 395.248 533.221 395.093 533.188L395.027 533.167L345.813 511.581C345.641 511.506 345.562 511.305 345.638 511.133Z" fill="#CCD7EE"/>
<path d="M338.439 517.124C338.51 516.975 338.674 516.902 338.828 516.94L338.893 516.963L375.751 534.494C375.921 534.575 375.993 534.778 375.913 534.948C375.842 535.097 375.677 535.171 375.524 535.133L375.459 535.109L338.6 517.578C338.43 517.497 338.358 517.294 338.439 517.124Z" fill="#CCD7EE"/>
<path d="M327.944 517.342C328.014 517.193 328.179 517.12 328.332 517.158L328.397 517.181L365.256 534.712C365.426 534.793 365.498 534.996 365.417 535.166C365.347 535.315 365.182 535.389 365.028 535.351L364.963 535.327L328.105 517.796C327.935 517.715 327.863 517.512 327.944 517.342Z" fill="#CCD7EE"/>
<path d="M318.199 518.221C318.269 518.072 318.434 517.998 318.587 518.036L318.652 518.059L355.511 535.591C355.681 535.672 355.753 535.875 355.672 536.045C355.602 536.193 355.437 536.267 355.283 536.229L355.218 536.206L318.36 518.675C318.19 518.594 318.118 518.391 318.199 518.221Z" fill="#CCD7EE"/>
<path d="M395.765 528.823C395.953 528.814 396.112 528.96 396.121 529.148C396.128 529.312 396.017 529.455 395.863 529.493L395.795 529.503L346.105 531.694C345.917 531.702 345.758 531.556 345.75 531.368C345.743 531.204 345.853 531.062 346.007 531.023L346.075 531.013L395.765 528.823Z" fill="#CCD7EE"/>
<path d="M385.153 524.113C385.341 524.105 385.5 524.25 385.508 524.438C385.515 524.603 385.405 524.745 385.251 524.784L385.183 524.794L335.493 526.984C335.305 526.993 335.146 526.847 335.137 526.659C335.13 526.495 335.241 526.352 335.394 526.314L335.463 526.304L385.153 524.113Z" fill="#CCD7EE"/>
<path d="M371.824 520.479C372.012 520.47 372.171 520.616 372.179 520.804C372.186 520.968 372.076 521.111 371.922 521.149L371.854 521.159L322.164 523.35C321.976 523.358 321.817 523.212 321.808 523.024C321.801 522.86 321.912 522.718 322.065 522.679L322.134 522.669L371.824 520.479Z" fill="#CCD7EE"/>
<path d="M363.209 512.947C363.397 512.938 363.556 513.084 363.565 513.272C363.572 513.436 363.461 513.579 363.308 513.617L363.239 513.627L313.549 515.818C313.362 515.826 313.202 515.68 313.194 515.492C313.187 515.328 313.298 515.186 313.451 515.147L313.519 515.137L363.209 512.947Z" fill="#CCD7EE"/>
<path fillRule="evenodd" clipRule="evenodd" d="M348.677 546.328L345.095 546.355L285.559 522.362L269.023 417.215L333.743 435.526L348.677 546.328Z" fill="#4E5C93"/>
<path fillRule="evenodd" clipRule="evenodd" d="M344.968 546.352L282.181 521.08C281.607 520.849 281.196 520.333 281.1 519.723L265.097 418.664C264.897 417.393 266.081 416.344 267.318 416.696L328.702 434.154C329.375 434.344 329.869 434.916 329.963 435.61L344.968 546.352Z" fill="#253368"/>
<path fillRule="evenodd" clipRule="evenodd" d="M394.297 513.82C395.866 518.068 400.087 520.738 404.597 520.336L496.017 512.21C506.154 511.309 513.37 501.957 511.67 491.922C509.966 481.87 500.042 475.415 490.162 477.936L401.23 500.619C395.459 502.091 392.231 508.235 394.297 513.82Z" fill="#FFC999"/>
<path fillRule="evenodd" clipRule="evenodd" d="M399.386 520.632C392.913 525.177 372.878 522.197 372.878 522.197L359.52 528.807C357.455 529.633 356.962 528.256 355.94 528.256C353.187 528.256 353.187 525.365 353.187 525.365C352.238 524.914 350.709 525.64 350.295 523.023C350.295 523.023 348.367 522.885 348.229 520.545C348.157 519.308 360.708 501.454 360.708 501.454L379.439 501.966C379.439 501.966 406.801 502.477 409.868 508.614C412.938 514.751 399.386 520.632 399.386 520.632Z" fill="#FFC999"/>
<path d="M371.465 510.835C371.732 510.74 372.026 510.879 372.121 511.146C372.207 511.387 372.103 511.649 371.887 511.768L371.811 511.803L364.219 514.514L354.922 524.63C354.862 524.689 354.769 524.794 354.669 524.932L354.594 525.042C354.334 525.435 354.223 525.813 354.308 526.122C354.451 526.642 355.16 527.111 356.685 527.416C356.963 527.472 357.144 527.743 357.088 528.021C357.032 528.299 356.762 528.479 356.484 528.424C354.619 528.05 353.584 527.367 353.317 526.394C353.139 525.743 353.33 525.092 353.736 524.476C353.88 524.258 354.024 524.083 354.128 523.973L354.186 523.915L363.549 513.726C363.587 513.685 363.63 513.651 363.679 513.624L363.754 513.59L371.465 510.835Z" fill="#DD936F"/>
<path d="M366.873 506.449C367.129 506.327 367.436 506.435 367.558 506.691C367.668 506.922 367.591 507.193 367.388 507.334L367.316 507.376L361.364 510.217L352.459 521.31L352.344 521.442L352.287 521.51C352.152 521.676 352.017 521.86 351.891 522.055C351.607 522.495 351.418 522.924 351.363 523.299C351.248 524.082 351.727 524.608 353.269 524.857C353.549 524.902 353.739 525.165 353.694 525.445C353.649 525.725 353.385 525.916 353.105 525.871C351.051 525.54 350.143 524.542 350.347 523.149C350.427 522.606 350.671 522.052 351.027 521.499C351.175 521.269 351.333 521.055 351.491 520.861L351.595 520.737C351.624 520.702 351.649 520.674 351.665 520.656L351.684 520.637L360.636 509.483C360.668 509.443 360.706 509.408 360.749 509.38L360.815 509.341L366.873 506.449Z" fill="#DD936F"/>
<path d="M376.229 515.495C376.508 515.445 376.775 515.63 376.826 515.909C376.872 516.16 376.726 516.402 376.493 516.485L376.413 516.506L367.476 518.13L357.79 527.548L357.789 527.565C357.786 527.623 357.791 527.683 357.806 527.739L357.837 527.822C357.982 528.114 358.464 528.32 359.507 528.293C360.373 528.27 362.081 527.498 364.304 526.177C364.759 525.906 365.231 525.616 365.716 525.308C366.767 524.643 367.831 523.928 368.853 523.214L369.366 522.853L370.186 522.264C370.258 522.21 370.344 522.177 370.433 522.167L370.944 522.117L371.466 522.073C371.741 522.051 372.038 522.029 372.355 522.009C374.763 521.852 377.439 521.799 380.228 521.91L382.154 521.998C390.29 522.388 395.043 521.926 400.58 519.324L400.951 519.147L401.14 519.097L447.169 516.028C447.452 516.009 447.696 516.223 447.715 516.506C447.732 516.761 447.56 516.984 447.32 517.04L447.237 517.053L401.307 520.115L401.015 520.255C395.416 522.886 390.614 523.399 382.652 523.049L380.187 522.936C377.437 522.826 374.796 522.879 372.422 523.034L371.825 523.075C371.635 523.09 371.455 523.104 371.284 523.118L370.681 523.174L369.96 523.691C369.796 523.808 369.622 523.93 369.441 524.056C368.407 524.779 367.331 525.501 366.266 526.176C365.773 526.489 365.293 526.784 364.828 527.06C362.445 528.476 360.644 529.291 359.534 529.32C358.131 529.357 357.269 528.987 356.917 528.279C356.749 527.941 356.729 527.594 356.793 527.277C356.805 527.213 356.819 527.162 356.832 527.126C356.849 527.075 356.875 527.027 356.907 526.984L356.96 526.923L366.873 517.285C366.928 517.232 366.994 517.191 367.066 517.167L367.14 517.148L376.229 515.495Z" fill="#DD936F"/>
<path d="M481.595 479.222C481.869 479.15 482.15 479.313 482.222 479.587C482.287 479.834 482.161 480.087 481.936 480.187L481.857 480.215L395.681 502.972L395.535 502.989L360.982 501.976L348.682 520.786L348.64 520.874C348.623 520.911 348.605 520.956 348.585 521.006L348.556 521.087C348.469 521.332 348.421 521.574 348.428 521.782C348.446 522.353 348.876 522.644 350.245 522.512C350.528 522.485 350.779 522.692 350.806 522.974C350.833 523.257 350.626 523.508 350.344 523.535C348.434 523.719 347.44 523.046 347.4 521.815C347.39 521.461 347.462 521.1 347.587 520.745C347.639 520.599 347.691 520.477 347.745 520.368L347.799 520.263L360.28 501.173C360.361 501.048 360.492 500.967 360.636 500.946L360.724 500.941L395.493 501.96L481.595 479.222Z" fill="#DD936F"/>
<path d="M386.723 459.865L414.298 463.188C414.671 463.233 414.938 463.572 414.893 463.946C414.851 464.288 414.563 464.54 414.227 464.545L414.135 464.54L386.56 461.218C386.187 461.173 385.921 460.834 385.966 460.46C386.007 460.118 386.295 459.865 386.631 459.86L386.723 459.865Z" fill="#253368"/>
<path d="M554.747 277.188C554.747 268.231 547.484 260.895 538.525 260.895C529.565 260.895 522.302 268.231 522.302 277.188C522.302 280.733 524.184 285.312 527.207 288.688C530.204 292.033 531.057 297.665 531.057 302.156V303.916H545.992V302.17C545.992 297.68 546.846 292.059 549.827 288.703C552.86 285.292 554.747 280.306 554.747 277.188Z" fill="#FFE58F"/>
<path d="M552.077 277.144C552.077 269.663 546.011 263.533 538.525 263.533C531.038 263.533 524.974 269.662 524.974 277.144C524.974 280.108 526.545 283.931 529.071 286.752C531.575 289.546 533.433 294.251 533.433 298.002V299.472H543.617V298.015C543.617 294.263 545.476 289.567 547.967 286.764C550.501 283.915 552.077 279.75 552.077 277.145V277.144Z" fill="#FAAD14"/>
<path d="M542.642 312.132H534.407C534.119 312.132 533.857 311.945 533.701 311.638L532.58 308.74H544.47L543.35 311.638C543.193 311.945 542.931 312.132 542.643 312.132H542.642Z" fill="#253368"/>
<path d="M544.642 297.218H532.407C531.498 297.218 530.762 297.955 530.762 298.864V308.342C530.762 309.251 531.498 309.988 532.407 309.988H544.642C545.551 309.988 546.288 309.251 546.288 308.342V298.864C546.288 297.955 545.551 297.218 544.642 297.218Z" fill="#597EF7"/>
<path d="M539.529 300.64C539.68 300.64 539.803 300.762 539.803 300.914C539.803 301.061 539.686 301.182 539.541 301.188L539.529 301.188H530.782C530.63 301.188 530.507 301.065 530.507 300.914C530.507 300.766 530.624 300.646 530.77 300.64L530.782 300.64H539.529Z" fill="white"/>
<path d="M539.529 306.317C539.68 306.317 539.803 306.44 539.803 306.591C539.803 306.738 539.686 306.859 539.541 306.865L539.529 306.865H530.782C530.63 306.865 530.507 306.742 530.507 306.591C530.507 306.444 530.624 306.323 530.77 306.317L530.782 306.317H539.529Z" fill="white"/>
<path d="M546.238 303.478C546.389 303.478 546.512 303.601 546.512 303.752C546.512 303.9 546.396 304.02 546.25 304.026L546.238 304.026H537.491C537.339 304.026 537.216 303.904 537.216 303.752C537.216 303.605 537.333 303.484 537.479 303.478L537.491 303.478H546.238Z" fill="white"/>
<path d="M539.631 270.64L533.516 279.955C533.187 280.46 533.541 281.081 534.134 281.081H536.873L533.505 287.442C533.254 287.957 533.901 288.434 534.298 288.027L543.458 278.825C543.926 278.346 543.594 277.528 542.932 277.528H538.79L540.523 271.046C540.659 270.493 539.939 270.168 539.631 270.64Z" fill="white"/>
<path fillRule="evenodd" clipRule="evenodd" d="M177.862 562.062L158.174 623.909H170.077L189.764 562.062H177.862Z" fill="#597EF7"/>
<path fillRule="evenodd" clipRule="evenodd" d="M149.788 569.094H137.153H129.188C128.566 569.094 128.063 569.597 128.063 570.219V578.184V607.787V615.753C128.063 616.374 128.566 616.878 129.188 616.878H137.153H149.788C150.409 616.878 150.913 616.374 150.913 615.753V608.912C150.913 608.291 150.409 607.787 149.788 607.787H137.153V578.184H149.788C150.409 578.184 150.913 577.68 150.913 577.059V570.219C150.913 569.597 150.409 569.094 149.788 569.094Z" fill="#CCD7EE"/>
<path fillRule="evenodd" clipRule="evenodd" d="M218.751 569.094H210.786H198.15C197.529 569.094 197.025 569.597 197.025 570.219V577.059C197.025 577.68 197.529 578.184 198.15 578.184H210.786V607.787H198.15C197.529 607.787 197.025 608.291 197.025 608.912V615.753C197.025 616.374 197.529 616.878 198.15 616.878H210.786H218.751C219.372 616.878 219.876 616.374 219.876 615.753V608.912V577.059V570.219C219.876 569.597 219.372 569.094 218.751 569.094Z" fill="#CCD7EE"/>
<path d="M617.594 504.278C617.594 504.543 617.798 504.758 618.051 504.758C618.303 504.758 618.508 504.543 618.508 504.278V497.875C618.508 497.61 618.303 497.395 618.051 497.395C617.798 497.395 617.594 497.61 617.594 497.875V504.278Z" fill="#597EF7"/>
<path d="M612.776 505.836C612.866 505.991 613.03 506.078 613.198 506.078C613.28 506.078 613.364 506.057 613.44 506.013C613.673 505.88 613.753 505.584 613.618 505.353L610.376 499.769C610.242 499.538 609.945 499.459 609.712 499.592C609.479 499.726 609.4 500.021 609.534 500.253L612.776 505.836Z" fill="#597EF7"/>
<path d="M609.594 509.684C609.512 509.684 609.429 509.663 609.353 509.618L603.769 506.376C603.538 506.242 603.459 505.945 603.592 505.712C603.726 505.479 604.021 505.4 604.253 505.534L609.836 508.776C610.068 508.91 610.147 509.208 610.013 509.44C609.924 509.596 609.761 509.684 609.594 509.684Z" fill="#597EF7"/>
<path d="M601.875 514.508H608.278C608.543 514.508 608.758 514.303 608.758 514.051C608.758 513.798 608.543 513.594 608.278 513.594H601.875C601.61 513.594 601.395 513.798 601.395 514.051C601.395 514.303 601.61 514.508 601.875 514.508Z" fill="#597EF7"/>
<path d="M604.011 522.531C603.844 522.531 603.682 522.444 603.592 522.288C603.459 522.055 603.538 521.758 603.769 521.624L609.353 518.382C609.584 518.247 609.88 518.327 610.013 518.56C610.147 518.792 610.068 519.09 609.836 519.224L604.253 522.466C604.177 522.51 604.093 522.531 604.011 522.531Z" fill="#597EF7"/>
<path d="M609.712 528.408C609.789 528.452 609.872 528.473 609.955 528.473C610.123 528.473 610.286 528.386 610.376 528.231L613.618 522.647C613.753 522.416 613.673 522.12 613.44 521.987C613.208 521.853 612.91 521.933 612.776 522.164L609.534 527.747C609.4 527.979 609.479 528.274 609.712 528.408Z" fill="#597EF7"/>
<path d="M618.051 530.605C617.798 530.605 617.594 530.39 617.594 530.125V523.722C617.594 523.457 617.798 523.242 618.051 523.242C618.303 523.242 618.508 523.457 618.508 523.722V530.125C618.508 530.39 618.303 530.605 618.051 530.605Z" fill="#597EF7"/>
<path d="M625.624 528.231C625.714 528.386 625.877 528.473 626.045 528.473C626.128 528.473 626.211 528.452 626.288 528.408C626.521 528.274 626.6 527.979 626.466 527.747L623.224 522.164C623.09 521.933 622.792 521.853 622.56 521.987C622.327 522.12 622.247 522.416 622.382 522.647L625.624 528.231Z" fill="#597EF7"/>
<path d="M631.989 522.531C631.907 522.531 631.823 522.51 631.747 522.466L626.164 519.224C625.932 519.09 625.853 518.792 625.987 518.56C626.12 518.327 626.416 518.247 626.647 518.382L632.231 521.624C632.462 521.758 632.541 522.055 632.408 522.288C632.318 522.444 632.156 522.531 631.989 522.531Z" fill="#597EF7"/>
<path d="M627.722 514.508H634.125C634.39 514.508 634.605 514.303 634.605 514.051C634.605 513.798 634.39 513.594 634.125 513.594H627.722C627.457 513.594 627.242 513.798 627.242 514.051C627.242 514.303 627.457 514.508 627.722 514.508Z" fill="#597EF7"/>
<path d="M626.406 509.684C626.239 509.684 626.076 509.596 625.987 509.44C625.853 509.208 625.932 508.91 626.164 508.776L631.747 505.534C631.979 505.4 632.274 505.479 632.408 505.712C632.541 505.945 632.462 506.242 632.231 506.376L626.647 509.618C626.571 509.663 626.488 509.684 626.406 509.684Z" fill="#597EF7"/>
<path d="M622.56 506.013C622.636 506.057 622.72 506.078 622.802 506.078C622.97 506.078 623.134 505.991 623.224 505.836L626.466 500.253C626.6 500.022 626.521 499.726 626.288 499.592C626.055 499.459 625.758 499.538 625.624 499.769L622.382 505.353C622.247 505.584 622.327 505.88 622.56 506.013Z" fill="#597EF7"/>
<path d="M564.25 411C564.25 418.594 570.406 424.75 578 424.75C585.594 424.75 591.75 418.594 591.75 411C591.75 403.406 585.594 397.25 578 397.25C570.406 397.25 564.25 403.406 564.25 411Z" fill="#597EF7"/>
<path d="M626.937 341.062H612.062C603.226 341.062 596.063 348.226 596.062 357.062L596.062 371.937C596.062 380.774 603.226 387.938 612.062 387.938H626.937C635.774 387.938 642.937 380.774 642.937 371.938V357.062C642.937 348.226 635.774 341.062 626.937 341.062Z" fill="#597EF7"/>
</svg>
