<svg width="1000" height="900" viewBox="0 0 1000 900" fill="none" xmlns="http://www.w3.org/2000/svg">
<g clip-path="url(#clip0_7294_7628)">
<path fill-rule="evenodd" clip-rule="evenodd" d="M75.6958 133.936C75.6958 133.852 75.6927 133.769 75.6927 133.685C75.6927 88.0192 112.543 51 158.001 51C191.705 51 220.673 71.3543 233.401 100.491C236.629 99.9328 239.947 99.6383 243.334 99.6383C275.422 99.6383 301.434 125.77 301.434 158.004C301.434 190.238 275.422 216.37 243.334 216.37H71.1536C48.4248 216.37 29.9999 197.86 29.9999 175.027C29.9999 152.194 48.4248 133.685 71.1536 133.685C72.6887 133.685 74.2041 133.772 75.6958 133.936Z" fill="url(#paint0_linear_7294_7628)"/>
<g opacity="0.5">
<path fill-rule="evenodd" clip-rule="evenodd" d="M892.28 115.735H685.687V97.1839C685.687 93.1599 688.943 89.8973 692.959 89.8973H885.008C889.024 89.8973 892.28 93.1599 892.28 97.1839V115.735Z" fill="#253368"/>
<path fill-rule="evenodd" clip-rule="evenodd" d="M885.008 294.348H692.959C688.943 294.348 685.687 291.086 685.687 287.061V113.562H892.28V287.061C892.28 291.086 889.024 294.348 885.008 294.348Z" fill="#E4EBF7"/>
<path fill-rule="evenodd" clip-rule="evenodd" d="M702.476 101.921C702.476 104.447 700.433 106.494 697.913 106.494C695.393 106.494 693.35 104.447 693.35 101.921C693.35 99.3958 695.393 97.3483 697.913 97.3483C700.433 97.3483 702.476 99.3958 702.476 101.921Z" fill="#FF7946"/>
<path fill-rule="evenodd" clip-rule="evenodd" d="M719.518 101.921C719.518 104.447 717.475 106.494 714.955 106.494C712.435 106.494 710.392 104.447 710.392 101.921C710.392 99.3958 712.435 97.3483 714.955 97.3483C717.475 97.3483 719.518 99.3958 719.518 101.921Z" fill="#FAAD14"/>
<path fill-rule="evenodd" clip-rule="evenodd" d="M736.56 101.921C736.56 104.447 734.517 106.494 731.997 106.494C729.477 106.494 727.434 104.447 727.434 101.921C727.434 99.3958 729.477 97.3483 731.997 97.3483C734.517 97.3483 736.56 99.3958 736.56 101.921Z" fill="#7CB305"/>
<path fill-rule="evenodd" clip-rule="evenodd" d="M708.016 269.757C706.763 269.757 705.747 268.74 705.747 267.485V135.777C705.747 134.523 706.763 133.505 708.016 133.505H872.208C873.461 133.505 874.477 134.523 874.477 135.777V267.485C874.477 268.74 873.461 269.757 872.208 269.757H708.016Z" fill="white"/>
<path d="M762.771 190.914C763.716 190.106 765.146 190.287 765.861 191.292L765.898 191.346L798.939 240.87L824.496 222.912C824.799 222.699 825.152 222.57 825.52 222.537L825.599 222.531L859.368 220.769C860.531 220.708 861.524 221.602 861.584 222.766C861.644 223.909 860.782 224.887 859.649 224.978L859.588 224.982L826.425 226.713L799.596 245.565C798.644 246.234 797.335 246.004 796.665 245.063L796.628 245.01L763.708 195.666L725.233 228.606C724.365 229.35 723.066 229.264 722.302 228.424L722.259 228.375C721.515 227.507 721.601 226.208 722.441 225.444L722.49 225.401L762.771 190.914Z" fill="#FF7946"/>
<path d="M854.367 161.025C855.016 160.058 856.326 159.799 857.294 160.448C858.244 161.085 858.51 162.36 857.905 163.322L857.871 163.375L827.827 208.174C827.074 209.298 825.478 209.428 824.551 208.458L824.506 208.409L790.167 170.202L766.363 186.263C766.027 186.49 765.634 186.614 765.23 186.623L765.149 186.624L723.827 185.948C722.662 185.929 721.733 184.969 721.752 183.804C721.771 182.66 722.698 181.743 723.835 181.729L723.896 181.73L764.554 182.394L789.329 165.678C790.183 165.102 791.325 165.228 792.033 165.969L792.078 166.017L825.832 203.573L854.367 161.025Z" fill="#FAAD14"/>
<path d="M802.32 189.716C802.847 189.256 803.566 189.087 804.239 189.262L804.309 189.281L826.308 195.807L858.731 190.641C859.862 190.46 860.925 191.214 861.136 192.332L861.146 192.392C861.326 193.522 860.573 194.586 859.455 194.797L859.395 194.807L826.499 200.049C826.216 200.094 825.927 200.081 825.65 200.01L825.567 199.988L804.223 193.657L767.135 226.094C766.452 226.691 765.465 226.784 764.685 226.329L764.627 226.294L720.319 198.571C719.331 197.953 719.032 196.651 719.65 195.664C720.256 194.694 721.522 194.387 722.503 194.961L722.557 194.994L765.537 221.887L802.32 189.716Z" fill="#597EF7"/>
<path fill-rule="evenodd" clip-rule="evenodd" d="M764.277 150.748H722.714C721.012 150.748 719.62 149.353 719.62 147.648C719.62 145.942 721.012 144.547 722.714 144.547H764.277C765.979 144.547 767.371 145.942 767.371 147.648C767.371 149.353 765.979 150.748 764.277 150.748Z" fill="#CCD7EE"/>
<path fill-rule="evenodd" clip-rule="evenodd" d="M740.246 165.369H724.778C723.069 165.369 721.684 163.981 721.684 162.269C721.684 160.557 723.069 159.169 724.778 159.169H740.246C741.955 159.169 743.34 160.557 743.34 162.269C743.34 163.981 741.955 165.369 740.246 165.369Z" fill="#CCD7EE"/>
<path d="M852.321 232.83C845.076 232.83 839.22 238.782 839.22 246.105C839.22 253.428 845.076 259.38 852.321 259.38C859.565 259.38 865.421 253.428 865.421 246.105C865.421 238.782 859.565 232.83 852.321 232.83ZM852.321 237.823C856.789 237.823 860.428 241.522 860.428 246.105C860.428 250.688 856.789 254.386 852.321 254.386C847.852 254.386 844.213 250.688 844.213 246.105C844.213 241.522 847.852 237.823 852.321 237.823Z" fill="#CCD7EE"/>
<path d="M861.033 239.103C862.301 238.561 863.769 239.149 864.311 240.417C865.04 242.12 865.421 243.974 865.421 245.88C865.421 247.44 865.166 248.966 864.672 250.407C864.224 251.711 862.804 252.406 861.5 251.958C860.216 251.518 859.523 250.136 859.927 248.849L859.948 248.786C860.264 247.866 860.428 246.887 860.428 245.88C860.428 244.702 860.204 243.564 859.777 242.517L859.72 242.381C859.178 241.113 859.766 239.646 861.033 239.103Z" fill="#597EF7"/>
</g>
<path fill-rule="evenodd" clip-rule="evenodd" d="M986.954 462.552C1082.81 417.212 1139.94 536.122 1091.73 602.33C1032.9 683.124 1002.77 776.088 985.986 804.097C971.829 827.725 933.051 885.33 886.355 858.779C843.381 834.344 866.803 738.442 866.803 738.442C866.803 738.442 868.701 518.485 986.954 462.552Z" fill="#5B8C00"/>
<path fill-rule="evenodd" clip-rule="evenodd" d="M698.635 840.315C666.047 796.349 654.149 733.255 690.522 717.076C725.396 701.565 783.163 739.757 809.921 813.262C836.677 886.766 852.115 939.614 825.941 948.803C782.999 963.878 741.677 898.384 698.635 840.315Z" fill="#5B8C00"/>
<path fill-rule="evenodd" clip-rule="evenodd" d="M1041.23 843.653C1004.37 886.847 951.186 973.737 917.865 943.305C897.67 924.862 924.668 837.522 998.569 790C1061.43 749.578 1078.09 800.459 1041.23 843.653Z" fill="#7CB305"/>
<path fill-rule="evenodd" clip-rule="evenodd" d="M688.532 543.91C702.548 534.48 720.182 532.326 736.27 537.479C758.724 544.671 792.798 566.085 826.522 627.548C870.551 707.795 893.471 795.767 888.94 851.492C885.978 887.935 841.082 903.646 815.966 877.075C804.431 864.871 792.226 846.06 780.285 817.523C732.229 702.684 687.3 630.72 681.941 623.494C667.646 604.213 657.424 564.84 688.532 543.91Z" fill="#7CB305"/>
<path fill-rule="evenodd" clip-rule="evenodd" d="M720.762 589.715C721.238 595.386 717.027 600.367 711.357 600.843C705.687 601.319 700.705 597.108 700.229 591.437C699.754 585.768 703.965 580.786 709.635 580.31C715.305 579.835 720.286 584.046 720.762 589.715Z" fill="white"/>
<path fill-rule="evenodd" clip-rule="evenodd" d="M808.271 633.703C808.748 639.372 804.536 644.354 798.866 644.83C793.196 645.306 788.214 641.095 787.738 635.425C787.263 629.755 791.474 624.773 797.144 624.297C802.814 623.822 807.796 628.033 808.271 633.703Z" fill="white"/>
<path fill-rule="evenodd" clip-rule="evenodd" d="M793.605 750.821C794.15 757.314 789.327 763.02 782.834 763.564C776.34 764.109 770.635 759.287 770.091 752.793C769.545 746.3 774.368 740.595 780.862 740.05C787.354 739.505 793.06 744.327 793.605 750.821Z" fill="white"/>
<path fill-rule="evenodd" clip-rule="evenodd" d="M1062.39 575.792C1062.39 585.008 1054.92 592.479 1045.7 592.479C1036.49 592.479 1029.02 585.008 1029.02 575.792C1029.02 566.578 1036.49 559.107 1045.7 559.107C1054.92 559.107 1062.39 566.578 1062.39 575.792Z" fill="white"/>
<path fill-rule="evenodd" clip-rule="evenodd" d="M928.066 626.745C928.066 635.96 920.595 643.431 911.38 643.431C902.165 643.431 894.695 635.96 894.695 626.745C894.695 617.531 902.165 610.06 911.38 610.06C920.595 610.06 928.066 617.531 928.066 626.745Z" fill="white"/>
<path fill-rule="evenodd" clip-rule="evenodd" d="M971.569 740.008C971.569 743.859 968.447 746.982 964.595 746.982C960.744 746.982 957.621 743.859 957.621 740.008C957.621 736.156 960.744 733.033 964.595 733.033C968.447 733.033 971.569 736.156 971.569 740.008Z" fill="white"/>
<path fill-rule="evenodd" clip-rule="evenodd" d="M1021.81 829.198C1021.81 834.888 1017.2 839.5 1011.51 839.5C1005.82 839.5 1001.21 834.888 1001.21 829.198C1001.21 823.508 1005.82 818.895 1011.51 818.895C1017.2 818.895 1021.81 823.508 1021.81 829.198Z" fill="white"/>
<path d="M781.173 852.049C782.133 851.133 783.654 851.169 784.57 852.13L785.009 852.604L785.342 852.972C785.948 853.648 786.647 854.455 787.433 855.392C789.666 858.055 792.149 861.237 794.819 864.934C802.428 875.47 810.03 888.04 817.121 902.625C837.356 944.245 849.492 993.681 849.492 1050.75C849.492 1052.08 848.417 1053.15 847.09 1053.15C845.763 1053.15 844.688 1052.08 844.688 1050.75C844.688 994.434 832.727 945.711 812.8 904.725C805.834 890.397 798.375 878.064 790.924 867.747C788.476 864.357 786.196 861.42 784.135 858.939L783.752 858.479C783.167 857.782 782.635 857.163 782.158 856.623L781.556 855.948C781.333 855.702 781.177 855.534 781.093 855.446C780.177 854.485 780.213 852.965 781.173 852.049Z" fill="#253368"/>
<path d="M962.67 868.864C963.464 867.801 964.969 867.582 966.032 868.376C967.096 869.17 967.314 870.675 966.52 871.738C957.77 883.457 949.696 896.057 942.27 909.413C926.572 937.648 914.436 967.919 905.428 998.193C902.275 1008.79 899.739 1018.62 897.765 1027.45L897.365 1029.26C896.894 1031.41 896.487 1033.38 896.14 1035.15L895.917 1036.3L895.518 1038.48C895.298 1039.79 894.059 1040.67 892.75 1040.45C891.442 1040.23 890.56 1038.99 890.78 1037.68L890.917 1036.91C891.029 1036.28 891.167 1035.55 891.331 1034.71L891.728 1032.71C892.114 1030.8 892.563 1028.69 893.076 1026.4L893.513 1024.47C895.443 1016.05 897.865 1006.76 900.823 996.822C909.924 966.235 922.188 935.646 938.071 907.079C945.597 893.541 953.788 880.761 962.67 868.864Z" fill="#253368"/>
<path d="M1004.65 569.141C1005.57 570.022 1005.64 571.459 1004.83 572.42L1004.72 572.538C1004.68 572.587 1004.57 572.695 1004.42 572.861L1003.83 573.506L1003.49 573.887C1002.45 575.039 1001.25 576.427 999.894 578.05C996.004 582.704 991.664 588.304 986.985 594.854C973.597 613.597 960.201 636.171 947.693 662.6C926.867 706.604 910.647 756.791 900.817 813.212C888.88 881.723 886.903 956.566 896.674 1037.79C896.833 1039.11 895.893 1040.31 894.576 1040.47C893.259 1040.62 892.062 1039.69 891.904 1038.37C882.077 956.674 884.066 881.36 896.083 812.387C905.99 755.532 922.343 704.932 943.35 660.545C955.984 633.851 969.526 611.031 983.076 592.061L984.126 590.599C988.303 584.813 992.209 579.781 995.765 575.5L996.207 574.969C997.484 573.441 998.632 572.112 999.639 570.982L999.91 570.679C1000.22 570.328 1000.51 570.018 1000.75 569.75L1001.25 569.213C1002.17 568.256 1003.69 568.223 1004.65 569.141Z" fill="#253368"/>
<path d="M796.708 711.604C797.843 710.916 799.32 711.278 800.008 712.413L800.249 712.818C800.441 713.143 800.667 713.531 800.925 713.98L801.302 714.64C801.947 715.772 802.671 717.074 803.468 718.542L804.129 719.765C806.572 724.314 809.25 729.577 812.109 735.539L812.5 736.356C821.825 755.894 831.146 778.741 839.843 804.703C864.195 877.396 879.01 959.904 879.565 1050.74C879.573 1052.06 878.504 1053.14 877.177 1053.15C875.85 1053.16 874.768 1052.09 874.76 1050.77C874.209 960.465 859.484 878.458 835.288 806.229C826.811 780.926 817.743 758.616 808.668 739.485L808.164 738.425C805.062 731.926 802.175 726.255 799.57 721.434L798.786 719.992C798.034 718.619 797.357 717.413 796.76 716.375L796.477 715.885L795.898 714.903C795.211 713.768 795.573 712.291 796.708 711.604Z" fill="#253368"/>
<path fill-rule="evenodd" clip-rule="evenodd" d="M981.6 1169.91H773.944C762.719 1169.91 753.535 1160.73 753.535 1149.5V998.011C753.535 986.785 762.719 977.602 773.944 977.602H981.6C992.825 977.602 1002.01 986.785 1002.01 998.011V1149.5C1002.01 1160.73 992.825 1169.91 981.6 1169.91Z" fill="#253368"/>
<path fill-rule="evenodd" clip-rule="evenodd" d="M273.159 894.364L246.843 950.558C246.843 950.558 45.7919 854.239 12.356 802.347C-17.328 756.277 52.9263 643.505 52.9263 643.505C52.9263 643.505 123.109 692.366 136.237 723.134L124.701 757.783L273.159 894.364Z" fill="#FFC999"/>
<path fill-rule="evenodd" clip-rule="evenodd" d="M536.815 804.101L484.297 675.891L582.999 617.522C582.999 617.522 684.093 794.011 663.453 833.506C637.407 883.342 578.712 883.489 536.815 804.101Z" fill="#FFC999"/>
<path fill-rule="evenodd" clip-rule="evenodd" d="M228.002 853.666C228.002 853.666 198.981 713.153 186.205 661.251C173.428 609.354 153.726 485.028 175.143 475.572C196.556 466.117 247.846 445.993 247.846 445.993C247.846 445.993 288.777 444.259 334.913 453.771C371.443 461.304 371.016 439.81 415.286 446.836C434.032 449.806 507.493 472.266 521.786 483.37C536.073 494.469 512.183 859.351 512.183 859.351C512.183 859.351 529.797 877.22 508.739 900.679C498.298 911.665 452.758 908.259 394.504 908.785C328.191 909.377 250.239 918.207 235.686 905.696C208.347 882.185 228.002 853.666 228.002 853.666Z" fill="#597EF7"/>
<path fill-rule="evenodd" clip-rule="evenodd" d="M394.03 421.681L351.948 457.931L399.871 506.753L423.377 447.925L394.03 421.681Z" fill="#597EF7"/>
<path fill-rule="evenodd" clip-rule="evenodd" d="M522.82 772.15C522.82 772.15 452.609 651.931 447.166 581.923C441.822 513.27 502.218 461.814 533.47 491.716C579.01 535.285 627.756 681.478 627.756 681.478C627.756 681.478 576.598 747.161 522.82 772.15Z" fill="#597EF7"/>
<path d="M607.431 694.152C608.163 693.068 609.636 692.784 610.72 693.517C611.803 694.25 612.088 695.722 611.355 696.806C604.232 707.339 596.32 717.099 587.754 726.109C574.151 740.42 559.577 752.186 544.997 761.579C539.888 764.87 535.14 767.632 530.873 769.884C529.973 770.359 529.133 770.791 528.356 771.18L526.148 772.253C525.83 772.402 525.59 772.511 525.431 772.581C524.234 773.109 522.836 772.566 522.309 771.368C521.782 770.171 522.325 768.773 523.522 768.246L524.466 767.808L524.832 767.633C525.713 767.21 526.709 766.712 527.813 766.139L528.661 765.695C532.811 763.505 537.441 760.812 542.432 757.596C556.709 748.398 570.992 736.867 584.321 722.846C592.71 714.02 600.458 704.463 607.431 694.152Z" fill="#253368"/>
<path fill-rule="evenodd" clip-rule="evenodd" d="M22.8125 700.169C22.8125 700.169 104.176 526.007 147.996 491.922C191.821 457.837 211.371 475.754 229.079 500.032C240.226 515.315 265.874 558.685 209.306 650.167C166.708 719.052 148.853 744.586 143.77 756.079C72.341 751.294 22.8125 700.169 22.8125 700.169Z" fill="#597EF7"/>
<path fill-rule="evenodd" clip-rule="evenodd" d="M352.518 468.7L394.581 422.279L381.477 284.172L271.017 293.296L270.098 433.563L352.518 468.7Z" fill="#FFC999"/>
<path fill-rule="evenodd" clip-rule="evenodd" d="M409.838 270.47C409.838 270.47 426.409 252.62 433.766 264.264C441.123 275.908 429.488 318.293 411.173 319.752C386.71 321.699 409.838 270.47 409.838 270.47Z" fill="#FFC999"/>
<path fill-rule="evenodd" clip-rule="evenodd" d="M305.293 380.538C305.293 380.538 341.865 409.279 388.93 379.112C422.816 357.396 425.507 281.211 417.756 225.491C413.37 193.959 398.457 177.251 367.451 168.53C336.441 159.804 252.879 161.201 254.248 254.218C255.774 357.823 305.293 380.538 305.293 380.538Z" fill="#FFC999"/>
<path d="M364.587 241.28C365.398 241.467 365.937 242.208 365.898 243.011L365.856 243.314L361.365 262.704L372.905 315.133C373.113 316.078 372.493 316.982 371.58 317.162L371.298 317.193L349.018 317.842C348.082 317.869 347.301 317.133 347.274 316.196C347.249 315.354 347.844 314.637 348.645 314.482L348.92 314.452L369.15 313.861L357.971 263.06C357.935 262.896 357.924 262.728 357.937 262.561L357.976 262.313L362.552 242.549C362.74 241.738 363.48 241.199 364.283 241.237L364.587 241.28Z" fill="#DD936F"/>
<path d="M291.511 237.302C306.332 225.826 324.883 224.88 340.594 232.944C342.921 234.139 343.84 236.994 342.645 239.322C341.451 241.649 338.595 242.568 336.267 241.373C323.702 234.924 309.097 235.669 297.312 244.794C295.243 246.395 292.268 246.017 290.666 243.948C289.064 241.879 289.443 238.904 291.511 237.302Z" fill="#253368"/>
<path fill-rule="evenodd" clip-rule="evenodd" d="M376.172 326.136C352.736 329.23 329.476 324.44 329.476 324.44C329.476 324.44 334.289 341.211 352.935 342.295C373.619 343.494 376.172 326.136 376.172 326.136Z" fill="white"/>
<path d="M327.2 325.094C327.928 327.63 329.663 331.281 332.773 334.932C337.576 340.57 344.198 344.16 352.798 344.66C362.918 345.247 370.071 341.777 374.539 335.64C377.012 332.242 378.166 328.855 378.515 326.481C378.744 324.925 377.421 323.582 375.862 323.788C363.781 325.383 350.852 325.025 338.495 323.459C336.633 323.223 334.912 322.974 333.351 322.722L330.659 322.257C330.357 322.201 330.121 322.155 329.954 322.121C328.21 321.761 326.708 323.383 327.2 325.094ZM333.747 328.14L333.403 327.527L333.834 327.593C335.104 327.786 336.462 327.976 337.9 328.159L340.293 328.446C350.689 329.628 361.416 329.956 371.745 329.012L372.89 328.894L372.599 329.59C372.096 330.707 371.47 331.806 370.709 332.852C367.18 337.7 361.565 340.423 353.073 339.931C345.828 339.509 340.38 336.556 336.379 331.859C335.362 330.665 334.487 329.412 333.747 328.14Z" fill="#FF7946"/>
<path fill-rule="evenodd" clip-rule="evenodd" d="M265.623 293.873L246.797 258.395C246.797 258.395 234.309 206.958 245.835 184.508C263.728 149.665 306.221 149.769 331.253 140.081C356.29 130.393 355.887 121.914 366.143 123.126C376.395 124.339 416.525 151.19 421.532 179.979C425.933 205.29 420.717 270.096 420.717 270.096C420.717 270.096 412.474 212.96 406.657 197.938C386.523 189.979 313.91 190.969 283.79 200.899C283.79 200.899 281.54 220.45 280.289 234.211C264.291 246.135 265.623 293.873 265.623 293.873Z" fill="#253368"/>
<path d="M389.544 375.868C390.162 375.164 391.233 375.094 391.937 375.711C392.641 376.329 392.711 377.401 392.094 378.105L391.669 378.561C391.166 379.079 390.425 379.775 389.444 380.599C387.294 382.403 384.7 384.201 381.654 385.875C364.931 395.067 342.63 396.86 314.587 386.705C313.706 386.386 313.25 385.414 313.569 384.533C313.888 383.653 314.861 383.197 315.741 383.516C342.865 393.337 364.15 391.626 380.02 382.903C382.866 381.338 385.278 379.666 387.263 378.001C388.435 377.017 389.193 376.268 389.544 375.868Z" fill="#DD936F"/>
<path d="M363.323 254.632C365.193 254.519 366.801 255.943 366.914 257.813C367.019 259.558 365.786 261.075 364.1 261.361L363.733 261.403L347.356 262.394C345.486 262.507 343.878 261.082 343.765 259.213C343.66 257.467 344.893 255.951 346.579 255.664L346.946 255.622L363.323 254.632Z" fill="#253368"/>
<path d="M348.951 265.88C352.345 264.336 355.822 263.511 359.24 263.841C362.228 264.129 364.951 265.309 367.219 267.468C368.576 268.76 368.628 270.907 367.337 272.263C366.045 273.62 363.898 273.673 362.541 272.381C361.408 271.302 360.111 270.74 358.589 270.593C356.544 270.396 354.167 270.96 351.76 272.055C350.479 272.638 349.508 273.213 349.017 273.555C347.48 274.626 345.366 274.249 344.295 272.712C343.223 271.175 343.601 269.061 345.138 267.99C345.942 267.43 347.256 266.651 348.951 265.88Z" fill="#253368"/>
<path d="M374.557 231.154C382.352 228.085 390.254 226.409 397.822 226.9C403.326 227.257 408.411 228.773 412.912 231.612C415.125 233.007 415.788 235.933 414.392 238.146C412.997 240.359 410.071 241.022 407.858 239.626C404.766 237.676 401.205 236.614 397.208 236.355C391.24 235.968 384.636 237.369 378.028 239.97C375.952 240.788 374.034 241.663 372.328 242.536L371.215 243.12C370.8 243.344 370.495 243.518 370.307 243.631C368.064 244.978 365.154 244.252 363.807 242.009C362.46 239.766 363.186 236.856 365.429 235.509C367.306 234.381 370.472 232.763 374.557 231.154Z" fill="#253368"/>
<path d="M361.23 349.687C362.166 349.643 362.96 350.365 363.005 351.301C363.045 352.143 362.464 352.87 361.665 353.04L361.391 353.075L348.037 353.71C347.101 353.754 346.307 353.032 346.262 352.096C346.222 351.254 346.804 350.527 347.602 350.357L347.876 350.322L361.23 349.687Z" fill="#DD936F"/>
<path d="M286.322 263.115C288.193 263.036 289.774 264.49 289.853 266.362C289.926 268.108 288.665 269.602 286.974 269.857L286.606 269.893L259.727 271.02C257.855 271.099 256.274 269.645 256.195 267.773C256.122 266.026 257.384 264.533 259.074 264.278L259.442 264.242L286.322 263.115Z" fill="#253368"/>
<path fill-rule="evenodd" clip-rule="evenodd" d="M288.19 256.363L339.495 253.923C343.076 253.753 346.117 256.51 346.264 260.091C346.53 266.776 346.667 277.51 345.364 286.762C343.829 297.682 334.416 304.769 323.435 305.802C309.73 307.09 297.394 307.687 290.824 300.856C280.804 290.438 282.282 272.441 282.036 262.962C281.946 259.48 284.717 256.529 288.19 256.363Z" fill="white"/>
<path d="M339.441 252.795L288.136 255.234C284.044 255.43 280.801 258.901 280.906 262.991L280.939 265.435L280.944 267.072C280.958 274.496 281.113 278.292 281.82 282.949C283.005 290.755 285.555 297.007 290.009 301.639C295.972 307.838 304.78 308.69 323.541 306.926C335.528 305.799 344.931 297.961 346.483 286.92C347.51 279.627 347.747 271.08 347.467 262.12L347.393 260.045C347.221 255.841 343.652 252.594 339.441 252.795ZM339.548 255.052C342.354 254.918 344.75 256.956 345.097 259.678L345.135 260.136C345.516 269.724 345.328 278.913 344.245 286.605C342.849 296.542 334.331 303.642 323.329 304.677C305.296 306.372 296.918 305.562 291.638 300.073C287.553 295.826 285.175 289.993 284.054 282.61L283.834 281.043C283.402 277.69 283.254 274.499 283.215 269.507L283.165 262.933C283.091 260.074 285.376 257.628 288.243 257.492L339.548 255.052Z" fill="#253368"/>
<path fill-rule="evenodd" clip-rule="evenodd" d="M368.182 251.989L426.267 249.227C428.82 257.617 428.304 290.532 418.673 298.04C405.65 305.672 378.538 303.924 374.005 296.998C367.131 286.491 363.796 265.983 363.488 257.101C363.388 254.391 365.477 252.117 368.182 251.989Z" fill="white"/>
<path d="M426.213 248.099L368.129 250.861C364.805 251.018 362.236 253.814 362.359 257.142C362.795 269.723 367.104 288.513 373.059 297.617C378.218 305.498 406.317 306.591 419.244 299.015C427.969 292.225 431.059 261.092 427.347 248.898C427.197 248.403 426.73 248.074 426.213 248.099ZM425.417 250.397L425.557 250.953C428.417 263.243 425.362 291.392 417.978 297.149C406.093 304.103 379.324 303.062 374.95 296.379C369.264 287.687 365.04 269.27 364.617 257.061C364.54 254.968 366.149 253.216 368.236 253.118L425.417 250.397Z" fill="#253368"/>
<path d="M346.24 252.233C348.113 252.193 349.664 253.679 349.703 255.552C349.741 257.3 348.449 258.768 346.754 258.988L346.384 259.016L282.715 260.37C280.842 260.41 279.292 258.924 279.252 257.051C279.215 255.303 280.507 253.836 282.202 253.616L282.571 253.588L346.24 252.233Z" fill="#253368"/>
<path d="M426.591 247.102C428.461 246.987 430.07 248.409 430.185 250.279C430.292 252.024 429.061 253.542 427.376 253.831L427.008 253.873L364.731 257.711C362.862 257.826 361.253 256.403 361.137 254.534C361.03 252.789 362.262 251.27 363.947 250.982L364.314 250.94L426.591 247.102Z" fill="#253368"/>
<path fill-rule="evenodd" clip-rule="evenodd" d="M256.911 265.078C250.293 258.37 240.094 256.579 232.95 264.434C221.448 277.092 232.566 323.726 263.889 325.44C275.766 323.707 267.243 275.547 256.911 265.078Z" fill="#FFC999"/>
<path fill-rule="evenodd" clip-rule="evenodd" d="M329.169 273.162C329.354 278.979 326.137 283.807 321.978 283.935C317.823 284.067 314.303 279.463 314.118 273.645C313.934 267.823 317.155 263 321.31 262.868C325.464 262.735 328.984 267.345 329.169 273.162Z" fill="#253368"/>
<path fill-rule="evenodd" clip-rule="evenodd" d="M399.405 270.928C399.59 276.745 396.369 281.568 392.214 281.701C388.059 281.833 384.539 277.224 384.355 271.406C384.17 265.589 387.391 260.766 391.546 260.634C395.701 260.501 399.22 265.11 399.405 270.928Z" fill="#253368"/>
<path fill-rule="evenodd" clip-rule="evenodd" d="M555.681 798.578C555.681 798.578 575.999 871.14 640.227 857.804C684.085 848.694 726.825 619.977 730.208 593.41C732.624 574.419 675.369 571.297 675.369 571.297L555.681 798.578Z" fill="#FFC999"/>
<path fill-rule="evenodd" clip-rule="evenodd" d="M234.969 905.331C234.969 905.331 384.355 882.256 508.799 903.223C509.894 914.237 511.045 927.795 511.045 927.795C511.045 927.795 410.316 903.749 234.486 938.284C234.775 908.377 234.969 905.331 234.969 905.331Z" fill="#ADC6FF"/>
<path d="M285.263 898.371C339.172 893.726 394.271 891.764 445.719 894.016C467.56 894.972 488.176 896.683 507.368 899.213C508.665 899.384 509.578 900.574 509.407 901.871C509.236 903.168 508.046 904.081 506.749 903.91C487.702 901.398 467.222 899.699 445.512 898.749C396.192 896.59 343.453 898.323 291.644 902.588L285.67 903.091C273.353 904.152 261.993 905.283 251.797 906.42L246.133 907.066L238.539 907.985L235.772 908.343C234.476 908.518 233.282 907.61 233.107 906.313C232.932 905.017 233.841 903.824 235.137 903.649L238.679 903.193C240.74 902.935 243.046 902.656 245.582 902.36L248.737 901.997C259.613 900.761 271.876 899.525 285.263 898.371Z" fill="#253368"/>
<path d="M624.264 666.68C624.724 665.864 625.758 665.575 626.574 666.036C627.299 666.445 627.607 667.307 627.344 668.067L627.218 668.346L577.007 757.36C576.547 758.176 575.513 758.464 574.697 758.004C573.972 757.595 573.663 756.732 573.927 755.973L574.053 755.693L624.264 666.68Z" fill="#DD936F"/>
<path fill-rule="evenodd" clip-rule="evenodd" d="M352.407 463.536L311.609 517.948L249.659 446.098L271.986 417.802L352.407 463.536Z" fill="#597EF7"/>
<path d="M354.271 466.452C355.441 466.013 356.745 466.605 357.184 467.775L357.651 469.134L358.114 470.591C358.359 471.384 358.623 472.272 358.906 473.26L359.488 475.341C360.671 479.664 361.959 484.941 363.329 491.247L364.03 494.528C368.351 515.105 372.653 542.061 376.68 576.214L377.427 582.659C381.255 616.29 384.624 655.106 387.417 699.478L387.686 703.79C392.264 778.089 391.729 841.818 388.471 889.586C388.386 890.833 387.307 891.774 386.061 891.689C384.814 891.604 383.873 890.525 383.958 889.278L384.278 884.385C387.233 837.379 387.582 775.652 383.17 704.068L382.631 695.494C379.805 651.555 376.409 613.16 372.561 579.942L372.187 576.744C368.067 541.803 363.663 514.457 359.256 493.823L358.908 492.208C357.33 484.943 355.866 479.082 354.556 474.505L354.035 472.726C353.87 472.177 353.714 471.671 353.566 471.207L352.949 469.365C352.51 468.196 353.102 466.892 354.271 466.452Z" fill="#253368"/>
<path d="M523.72 494.233C525.027 494.18 526.131 495.195 526.186 496.502L526.278 499.538C526.579 512.221 526.247 526.742 524.789 540.555C523.88 549.169 522.58 556.828 520.833 563.308L520.45 564.679L520.583 564.924L520.733 565.239C521.114 566.101 521.465 567.352 521.812 569.026C522.489 572.292 523.156 577.219 523.757 583.474L524.032 586.486C525.242 600.39 526.052 618.931 526.269 640.283C526.858 698.532 523.155 768.843 514.288 845.438L513.831 849.334L514.441 850.89L514.634 851.407C515.408 853.486 516.181 855.783 516.903 858.239C518.635 864.134 519.798 869.987 520.128 875.499C520.677 884.693 518.865 892.198 513.987 897.3C513.083 898.246 511.583 898.279 510.638 897.375C509.692 896.471 509.659 894.972 510.563 894.026C514.365 890.049 515.877 883.787 515.399 875.782C515.093 870.67 513.997 865.153 512.357 859.574C511.807 857.7 511.225 855.922 510.637 854.272L510.195 853.06C509.756 851.881 509.418 851.043 509.231 850.609C509.067 850.227 509.007 849.809 509.055 849.396C518.102 772.753 521.981 702.282 521.561 643.759L521.532 640.331C521.317 619.097 520.512 600.678 519.314 586.909L519.041 583.927C518.456 577.828 517.81 573.056 517.173 569.988C517.011 569.204 516.852 568.551 516.706 568.044L516.556 567.572C515.735 567.089 515.2 566.169 515.396 565.11L515.469 564.818C517.54 558.101 519.058 549.717 520.078 540.057C521.409 527.451 521.786 514.191 521.596 502.355L521.474 497.267C521.467 497.041 521.459 496.852 521.453 496.702C521.398 495.395 522.413 494.291 523.72 494.233Z" fill="#253368"/>
<path d="M408.084 536.34L407.601 536.338C406.223 536.334 405.133 537.501 405.231 538.875L411.252 623.228C411.309 624.029 411.768 624.746 412.471 625.134L458.357 650.417C459.144 650.851 460.109 650.801 460.848 650.29L496.004 625.949C496.579 625.551 496.949 624.919 497.014 624.223L497.238 621.336L497.424 618.444C497.506 617.067 497.587 615.567 497.666 613.944L497.724 612.704C498.457 596.721 498.686 576.039 498.108 550.515C498.088 549.603 497.545 548.784 496.713 548.409C485.384 543.306 467.304 539.993 444.91 538.067C436.852 537.374 428.704 536.906 420.786 536.623L415.87 536.47C412.804 536.39 410.177 536.35 408.084 536.34ZM415.885 621.606L410.137 541.094L413.958 541.163C415.963 541.207 418.194 541.271 420.617 541.358C428.46 541.638 436.531 542.101 444.504 542.787L446.483 542.962L450.368 543.334C468.271 545.143 482.956 547.941 492.745 551.87L493.403 552.141L493.48 555.812C493.897 578.001 493.687 596.305 493.065 610.828L492.816 616.028C492.736 617.509 492.655 618.867 492.573 620.103L492.386 622.689L459.358 645.558L415.885 621.606Z" fill="#253368"/>
<path fill-rule="evenodd" clip-rule="evenodd" d="M355.872 504.213C355.972 508.429 353.196 511.916 349.68 511.997C346.165 512.072 343.238 508.718 343.143 504.502C343.048 500.281 345.82 496.799 349.335 496.719C352.85 496.638 355.777 499.992 355.872 504.213Z" fill="white"/>
<path fill-rule="evenodd" clip-rule="evenodd" d="M366.535 581.663C366.635 585.879 363.859 589.366 360.344 589.446C356.828 589.522 353.901 586.168 353.806 581.952C353.711 577.731 356.483 574.249 359.998 574.168C363.513 574.088 366.44 577.447 366.535 581.663Z" fill="white"/>
<path fill-rule="evenodd" clip-rule="evenodd" d="M373.526 665.564C373.62 669.78 370.849 673.267 367.329 673.347C363.814 673.423 360.891 670.069 360.792 665.853C360.697 661.632 363.473 658.15 366.988 658.069C370.499 657.989 373.426 661.343 373.526 665.564Z" fill="white"/>
<path fill-rule="evenodd" clip-rule="evenodd" d="M376.579 744.458C376.674 748.679 373.903 752.161 370.383 752.241C366.868 752.317 363.945 748.963 363.845 744.747C363.755 740.526 366.527 737.044 370.042 736.964C373.557 736.883 376.48 740.242 376.579 744.458Z" fill="white"/>
<path fill-rule="evenodd" clip-rule="evenodd" d="M377.662 848.871C377.757 853.087 374.985 856.574 371.465 856.654C367.95 856.73 365.027 853.376 364.928 849.16C364.838 844.939 367.609 841.457 371.124 841.377C374.639 841.296 377.562 844.65 377.662 848.871Z" fill="white"/>
<path d="M248.988 446.586C249.849 445.846 251.108 445.868 251.941 446.59L252.178 446.827L310.326 514.492L351.205 466.304C351.94 465.438 353.186 465.262 354.123 465.845L354.393 466.042C355.26 466.777 355.435 468.023 354.853 468.96L354.655 469.231L312.062 519.441C311.237 520.413 309.795 520.499 308.862 519.694L308.621 519.452L248.747 449.776C247.932 448.828 248.04 447.4 248.988 446.586Z" fill="#253368"/>
<path d="M421.257 448.486C421.651 447.3 422.931 446.658 424.117 447.052C425.204 447.412 425.834 448.518 425.628 449.613L425.551 449.911L403.688 515.783C403.19 517.285 401.371 517.796 400.169 516.87L399.921 516.649L352.984 468.461C352.112 467.566 352.131 466.134 353.026 465.262C353.831 464.478 355.072 464.415 355.947 465.062L356.225 465.304L400.565 510.825L421.257 448.486Z" fill="#253368"/>
<path d="M148.03 507.665C148.688 506.535 150.138 506.152 151.268 506.81L151.706 507.076C152.134 507.344 152.718 507.728 153.442 508.234C155.102 509.394 156.943 510.814 158.919 512.504C164.539 517.308 170.147 523.328 175.376 530.65C195.739 559.172 204.679 598.462 195.847 649.871C195.626 651.16 194.401 652.026 193.112 651.804C191.823 651.583 190.957 650.358 191.178 649.069C199.796 598.904 191.148 560.894 171.52 533.403C166.524 526.405 161.177 520.667 155.841 516.105C154.293 514.781 152.841 513.64 151.511 512.675L150.728 512.117C149.824 511.485 149.195 511.084 148.885 510.904C147.754 510.246 147.371 508.796 148.03 507.665Z" fill="#253368"/>
<path d="M21.1651 698.468C22.105 697.558 23.6046 697.582 24.5144 698.522L25.4135 699.422C25.8117 699.814 26.3076 700.293 26.8985 700.855L28.6801 702.523C30.233 703.955 31.9555 705.49 33.84 707.11C41.3873 713.594 49.9539 720.081 59.3698 726.134C86.5676 743.619 115.166 753.989 143.747 753.71C145.055 753.698 146.126 754.748 146.139 756.056C146.151 757.364 145.101 758.435 143.793 758.448C114.157 758.736 84.7172 748.061 56.8081 730.119C47.1971 723.941 38.4579 717.323 30.7527 710.703L28.5173 708.756C27.0801 707.486 25.7494 706.275 24.5291 705.132L23.1149 703.792L21.1106 701.817C20.2007 700.877 20.2252 699.377 21.1651 698.468Z" fill="#DD936F"/>
<path d="M242.247 272.861C242.592 271.99 243.578 271.564 244.449 271.91L245.048 272.17C245.404 272.334 245.841 272.551 246.339 272.822C247.713 273.568 249.085 274.473 250.373 275.549C255.08 279.481 257.457 284.597 256.051 290.816C255.517 293.174 254.442 294.439 252.436 295.652L251.568 296.147C249.849 297.103 249.421 297.574 249.272 299.046C248.984 301.858 250.273 303.952 252.736 305.55C253.559 306.085 254.453 306.518 255.347 306.853L255.917 307.054C256.167 307.136 256.36 307.19 256.481 307.219C257.392 307.436 257.955 308.35 257.738 309.261C257.521 310.173 256.607 310.736 255.696 310.519C254.455 310.224 252.682 309.559 250.889 308.395C247.45 306.164 245.465 302.937 245.897 298.703C246.163 296.075 247.181 294.798 249.422 293.468L250.258 292.995C251.845 292.107 252.416 291.507 252.743 290.067C253.832 285.251 252.014 281.34 248.198 278.152C247.096 277.232 245.908 276.448 244.721 275.803L243.962 275.409C243.628 275.245 243.367 275.13 243.198 275.062C242.327 274.717 241.902 273.731 242.247 272.861Z" fill="#DD936F"/>
<path fill-rule="evenodd" clip-rule="evenodd" d="M666.101 590.903L699.02 465.994C699.02 465.994 754.792 364.123 775.703 369.946C795.169 378.056 752.031 407.707 743.882 436.353C762.244 434.705 754.39 462.205 754.39 462.205C754.39 462.205 769.019 461.409 765.485 483.764C779.218 491.562 768.791 517.328 768.791 517.328C768.791 517.328 742.698 585.194 713.26 630.673C713.26 630.673 663.77 670.338 666.101 590.903Z" fill="#FFC999"/>
<path fill-rule="evenodd" clip-rule="evenodd" d="M673.155 548.773C673.155 548.773 677.632 506.056 681.161 484.274C684.695 462.497 674.818 423.452 690.835 433.552C701.608 440.35 700.177 463.705 700.106 480.911C700.035 498.121 728.549 538.388 708.358 566.983C694.715 586.302 672.701 589.21 673.155 548.773Z" fill="#FFC999"/>
<path d="M745.028 435.102C745.719 435.735 745.765 436.808 745.132 437.498L744.135 438.612L742.186 440.867C741.955 441.14 741.718 441.42 741.478 441.708C738.726 444.99 735.974 448.499 733.408 452.087C730.875 455.629 728.663 459.058 726.863 462.299C720.505 473.742 720.035 481.175 726.524 483.744C727.394 484.089 727.821 485.075 727.476 485.946C727.131 486.817 726.145 487.243 725.275 486.898C716.059 483.248 716.665 473.671 723.898 460.651C725.766 457.288 728.046 453.754 730.649 450.114C733.269 446.45 736.074 442.874 738.878 439.529L740.295 437.858L742.632 435.205C743.265 434.515 744.338 434.469 745.028 435.102Z" fill="#DD936F"/>
<path d="M753.99 462.004C754.573 462.737 754.451 463.804 753.719 464.387L752.662 465.251L751.315 466.383C750.844 466.784 750.351 467.209 749.84 467.655C746.918 470.208 743.997 472.942 741.275 475.744C738.431 478.672 735.971 481.506 734.014 484.174C728.469 491.729 727.59 496.851 731.86 499.365C733.469 500.313 735.247 500.55 737.238 500.141C740.437 499.483 744.018 497.197 747.668 493.786C749.255 492.303 750.745 490.709 752.093 489.115L753.24 487.715C753.466 487.428 753.644 487.193 753.773 487.018C754.326 486.263 755.388 486.1 756.143 486.653C756.898 487.207 757.062 488.268 756.508 489.024L755.654 490.127C755.376 490.474 755.052 490.869 754.683 491.305C753.255 492.994 751.676 494.683 749.984 496.264C745.919 500.063 741.862 502.653 737.921 503.463C735.141 504.035 732.508 503.683 730.138 502.287C723.46 498.355 724.699 491.133 731.279 482.167C733.339 479.36 735.897 476.412 738.842 473.38C741.634 470.506 744.621 467.71 747.608 465.101C748.653 464.188 749.625 463.363 750.497 462.639L751.607 461.733C752.34 461.15 753.407 461.271 753.99 462.004Z" fill="#DD936F"/>
<path d="M760.316 483.805C761.239 483.642 762.118 484.258 762.281 485.18C762.444 486.103 761.828 486.982 760.905 487.145C757.827 487.688 754.022 490.484 749.544 495.953C740.104 507.473 738.192 514.991 741.436 516.811C744.658 518.617 751.772 515.219 756.229 508.594C757.405 506.845 760.08 508.383 759.162 510.279C753.405 522.169 746.501 530.16 737.61 536.414C735.82 537.673 733.966 538.855 731.881 540.084L730.602 540.828C729.783 541.297 728.951 541.764 727.966 542.308L723.899 544.537C709.738 552.342 704.225 558.571 701.391 574.139C701.223 575.06 700.34 575.671 699.418 575.503C698.497 575.336 697.886 574.453 698.054 573.531C700.962 557.558 706.744 550.46 720.317 542.66L727.682 538.584C728.108 538.345 728.513 538.115 728.914 537.886C731.45 536.431 733.605 535.084 735.658 533.639C741.277 529.688 746.048 525.015 750.235 518.973L750.535 518.525L750.283 518.673C746.665 520.662 742.989 521.262 740.251 520.01L739.777 519.769C733.836 516.438 736.297 506.769 746.92 493.804C751.863 487.766 756.288 484.515 760.316 483.805Z" fill="#DD936F"/>
<path d="M700.025 457.716C700.864 457.631 701.622 458.173 701.834 458.961L701.883 459.233L705.152 491.548L705.436 492.019C705.828 492.673 706.262 493.429 706.729 494.278C708.059 496.7 709.389 499.396 710.63 502.301C714.205 510.67 716.349 519.058 716.334 526.953C716.322 532.793 715.109 538.14 712.528 542.86C712.078 543.681 711.048 543.983 710.226 543.534C709.404 543.084 709.102 542.054 709.552 541.232C711.844 537.042 712.931 532.249 712.942 526.947C712.956 519.58 710.92 511.615 707.511 503.634C706.316 500.837 705.035 498.24 703.756 495.912L702.752 494.139C702.468 493.655 702.239 493.281 702.075 493.025C701.979 492.876 701.908 492.712 701.863 492.542L701.815 492.28L698.509 459.574C698.415 458.642 699.094 457.81 700.025 457.716Z" fill="#DD936F"/>
</g>
<defs>
<linearGradient id="paint0_linear_7294_7628" x1="179.455" y1="199.494" x2="179.455" y2="26.5111" gradientUnits="userSpaceOnUse">
<stop stop-color="#F2F4F9" stop-opacity="0"/>
<stop offset="1" stop-color="#E0E5F1"/>
</linearGradient>
<clipPath id="clip0_7294_7628">
<rect width="1000" height="900" fill="white"/>
</clipPath>
</defs>
</svg>
